<svg width="37" height="39" viewBox="0 0 37 39" fill="none" xmlns="http://www.w3.org/2000/svg">
<g clip-path="url(#clip0_506_2528)">
<path d="M23.606 4.29786C23.5223 4.29786 23.4365 4.28616 23.3548 4.29981C23.0796 4.34756 22.8373 4.20137 22.579 4.16044C22.4704 4.1429 22.3019 4.12926 22.1982 3.99964C22.1244 3.90803 22.1214 3.79011 22.2021 3.7063C22.3039 3.60007 22.4564 3.56791 22.5441 3.43829C22.58 3.38567 22.7007 3.38469 22.7685 3.31745C22.8772 3.21025 23.0198 3.13228 23.1115 3.01436C23.1544 2.95978 23.0317 2.90326 22.9759 2.86233C22.937 2.83407 22.8692 2.83894 22.8144 2.83894C22.1682 2.83309 21.5201 2.85258 20.878 2.80775C20.7045 2.79606 20.4802 2.79118 20.3196 2.65475C20.3167 2.65182 20.3117 2.6489 20.3087 2.64987C20.1422 2.6947 20.0275 2.5378 19.866 2.54365C19.6715 2.55047 19.4871 2.50564 19.3305 2.38089C19.3096 2.36433 19.2697 2.36628 19.2388 2.36433C19.0503 2.34971 18.8888 2.28149 18.7263 2.18306C18.6465 2.13433 18.5508 2.07488 18.4351 2.05344C18.3185 2.032 18.1849 1.9823 18.0782 1.92285C17.9805 1.8673 17.8698 1.84781 17.7741 1.78446C17.6913 1.72989 17.6135 1.67921 17.5477 1.60514C17.4909 1.54082 17.3852 1.51548 17.3204 1.49404C17.105 1.42387 17.0013 1.23871 16.8328 1.12858C16.7231 1.05744 16.6214 0.980449 16.5187 0.900535C16.433 0.834265 16.4489 0.729012 16.3562 0.664691C16.2236 0.573082 16.1369 0.421051 16.0092 0.321645C15.9065 0.241731 15.9534 0.154021 15.9564 0.0721577C15.9594 -0.0175019 16.0491 0.029277 16.101 0.0195314C16.2346 -0.00483265 16.3682 -0.000934402 16.5038 0.0185568C16.7401 0.0516919 16.8837 0.215418 17.0452 0.35673C17.1539 0.451262 17.2546 0.547744 17.3872 0.62181C17.5138 0.691979 17.6784 0.714394 17.7621 0.862527C17.799 0.927823 17.9436 0.848883 17.9665 0.971678C18.1101 0.938543 18.2297 1.04185 18.3285 1.09155C18.5378 1.19778 18.7692 1.1549 18.9756 1.2504C19.0932 1.304 19.2498 1.27769 19.3884 1.28938C19.4472 1.29426 19.515 1.266 19.5569 1.34104C19.5718 1.3693 19.6137 1.36443 19.6336 1.32739C19.6755 1.2504 19.6656 1.16951 19.6107 1.11007C19.3923 0.875196 19.1311 0.671513 19.0384 0.347959C19.0234 0.295332 18.9576 0.316773 18.9457 0.255375C18.9108 0.0780051 18.9516 0.0127095 19.1391 0.00686209C19.3186 0.00101472 19.498 0.00783665 19.6775 0.00491297C19.86 0.00198928 19.9228 0.165716 20.0405 0.252452C20.2339 0.395712 20.3496 0.614014 20.5958 0.721216C20.7604 0.792359 20.9338 0.903459 21.0685 1.0438C21.0884 1.06426 21.1323 1.06621 21.1662 1.06913C21.3207 1.0818 21.4783 1.07791 21.6288 1.10714C21.7465 1.13053 21.8572 1.19095 21.9678 1.24456C22.0436 1.28159 22.1453 1.27379 22.2351 1.27672C22.3976 1.28354 22.5611 1.28744 22.7246 1.28354C22.7675 1.28256 22.8403 1.29426 22.8493 1.22214C22.8582 1.14515 22.8792 1.0282 22.8233 1.00091C22.7067 0.943416 22.7196 0.823545 22.6638 0.741681C22.606 0.656895 22.5561 0.532151 22.5033 0.445415C22.4365 0.334315 22.4464 0.236859 22.4305 0.131606C22.4185 0.0458446 22.4644 0.0146586 22.5432 0.00588753C22.7735 -0.0194511 22.9629 0.0283024 23.1474 0.193003C23.3368 0.362577 23.5053 0.581853 23.7566 0.662742C23.8872 0.704648 24.0248 0.755325 24.1385 0.810875C24.306 0.891764 24.5303 0.864476 24.646 1.04574C24.653 1.05646 24.6719 1.06913 24.6839 1.06719C24.8654 1.0399 25.0149 1.1354 25.1735 1.18998C25.339 1.24748 25.5205 1.25722 25.674 1.34981C25.677 1.35176 25.682 1.35273 25.685 1.35273C25.9143 1.33616 26.1038 1.51938 26.3381 1.4804C26.4727 1.45798 26.5505 1.5379 26.6282 1.62366C26.688 1.68896 26.7967 1.72014 26.8566 1.72891C27.0241 1.75328 27.1776 1.8215 27.3282 1.8751C27.4827 1.93065 27.6692 1.90238 27.7799 1.97937C27.9085 2.06903 28.062 1.99887 28.1398 2.07001C28.2874 2.20742 28.4898 2.09242 28.6404 2.22789C28.7111 2.29221 28.8687 2.30585 28.9814 2.32827C29.1738 2.36725 29.3602 2.43644 29.5507 2.47932C29.6624 2.50466 29.8418 2.48517 29.9196 2.63233C29.9226 2.6372 29.9346 2.6411 29.9416 2.64013C30.123 2.59432 30.2826 2.70835 30.4241 2.76487C30.5558 2.81652 30.7203 2.77754 30.8409 2.90911C30.9127 2.98707 31.0822 2.97733 31.2079 3.01144C31.3963 3.06211 31.5768 3.09817 31.7523 3.20342C31.841 3.25702 31.9617 3.32622 32.1042 3.32622C32.2857 3.32622 32.4622 3.40126 32.6237 3.49482C32.7165 3.54842 32.8341 3.55914 32.9278 3.57863C33.0924 3.61274 33.2339 3.70045 33.3995 3.73164C33.5012 3.75015 33.6298 3.78621 33.7235 3.87685C33.7774 3.9285 33.8701 3.94604 33.9429 3.98502C34.1921 4.11756 34.257 4.22574 34.1911 4.50641C34.1722 4.58633 34.1074 4.64967 34.0655 4.68183C33.9459 4.77442 33.912 4.91865 33.8053 5.01708C33.7285 5.08823 33.6029 5.05899 33.552 5.16717C33.4982 5.28411 33.2788 5.23441 33.2798 5.4147C33.2798 5.4225 33.2559 5.43614 33.2429 5.43614C33.0545 5.43712 32.887 5.52288 32.7095 5.56576C32.528 5.61059 32.3376 5.63593 32.18 5.74703C32.174 5.75093 32.1651 5.7519 32.1571 5.75288C31.8819 5.77042 31.6456 5.91758 31.3804 5.97508C31.17 6.02088 30.9576 6.09202 30.7572 6.16512C30.458 6.27329 30.1549 6.29961 29.8518 6.35905C29.6534 6.39804 29.4071 6.37952 29.2406 6.54812C29.1997 6.59003 29.1349 6.64265 29.1379 6.68651C29.1489 6.83756 29.0621 6.96815 29.0023 7.07438C28.9106 7.23811 28.9614 7.39989 28.9116 7.55192C28.8906 7.61624 28.8438 7.69323 28.7989 7.74293C28.7281 7.8209 28.7371 7.90373 28.7261 7.98657C28.6852 8.28771 28.6802 8.60542 28.5985 8.88804C28.4798 9.29638 28.6025 9.71057 28.4948 10.0945C28.43 10.3265 28.4978 10.5682 28.403 10.7641C28.3243 10.9288 28.3861 11.1042 28.3103 11.2358C28.1827 11.456 28.2435 11.7377 28.0471 11.9267C28.0341 11.9394 28.0391 11.9716 28.0381 11.9949C28.0271 12.186 27.9304 12.3409 27.8477 12.5076C27.7898 12.6255 27.8277 12.7892 27.8277 12.9325C27.8277 12.9422 27.8656 12.9588 27.8856 12.9598C28.0271 12.9676 28.1338 12.8925 28.2365 12.8106C28.3063 12.7541 28.416 12.7785 28.4718 12.684C28.5327 12.5797 28.6593 12.6089 28.754 12.5738C28.8208 12.5495 28.8826 12.5007 28.9534 12.4686C29.1499 12.3799 29.3632 12.338 29.5577 12.2327C29.6803 12.1665 29.8458 12.1207 30.0004 12.0836C30.142 12.0495 30.3165 12.0495 30.4301 11.9248C30.4391 11.915 30.459 11.9121 30.474 11.9131C30.7681 11.9189 31.0513 11.8283 31.3335 11.7796C32.0863 11.649 32.8381 11.7299 33.5889 11.6899C33.7385 11.6821 33.8591 11.7445 33.891 11.8439C33.9259 11.9511 33.9808 12.108 33.8292 12.2084C33.8113 12.2201 33.8152 12.2659 33.8142 12.2961C33.8083 12.4598 33.8182 12.6255 33.7943 12.7863C33.7624 12.9987 33.7584 13.2385 33.6816 13.4149C33.5111 13.8067 33.5341 14.2052 33.4792 14.6038C33.4463 14.8436 33.4812 15.1057 33.3845 15.3221C33.2369 15.6505 33.3875 15.9936 33.2868 16.3025C33.1691 16.6611 33.2738 17.0286 33.1801 17.3716C33.1392 17.5207 33.1462 17.6718 33.0973 17.8082C33.0525 17.9349 32.9368 18.0353 32.87 18.1561C32.7683 18.3403 32.5509 18.4758 32.6058 18.7282C32.6267 18.8256 32.525 18.8559 32.4821 18.8987C32.2688 19.1073 32.0025 19.2554 31.7951 19.4767C31.6775 19.6024 31.511 19.6852 31.3634 19.7827C31.149 19.9249 30.9317 20.0624 30.6644 20.0926C30.6066 20.0994 30.6196 20.1627 30.5637 20.1891C30.3414 20.2933 30.138 20.4366 29.9136 20.5331C29.777 20.5915 29.6085 20.614 29.461 20.5535C29.3393 20.5038 29.3124 20.3859 29.3134 20.2621C29.3154 20.0399 29.3124 19.8177 29.3124 19.5955C29.3124 19.4308 29.3991 19.3071 29.5018 19.1862C29.5477 19.1317 29.5407 19.0566 29.6015 18.9884C29.7122 18.8646 29.8588 18.8178 29.9864 18.737C30.0971 18.6678 30.2148 18.5879 30.3314 18.5518C30.4371 18.5187 30.5229 18.428 30.6385 18.4378C30.829 18.4524 30.9735 18.3598 31.1211 18.2623C31.1909 18.2165 31.2936 18.2341 31.3554 18.1551C31.503 17.969 31.7413 17.8472 31.7024 17.5421C31.6675 17.2693 31.7343 16.9818 31.6805 16.7147C31.6057 16.3405 31.6705 15.9565 31.5838 15.5959C31.495 15.2246 31.5309 14.8563 31.498 14.4869C31.494 14.4391 31.5279 14.3573 31.4531 14.3505C31.3744 14.3436 31.2796 14.2832 31.2099 14.3933C31.166 14.4625 31.0383 14.483 30.9925 14.4908C30.7622 14.5298 30.6126 14.7374 30.3663 14.7432C30.2985 14.7452 30.1659 14.7822 30.1041 14.8865C30.0652 14.9508 29.9256 14.8855 29.9027 15.0015C29.775 14.9693 29.7082 15.1096 29.5946 15.1067C29.5258 15.1048 29.5337 15.1681 29.4998 15.1896C29.3902 15.2587 29.2805 15.3357 29.1598 15.3796C29.0512 15.4186 28.9923 15.5004 28.9106 15.5638C28.8438 15.6154 28.7371 15.6096 28.6762 15.6915C28.5426 15.8708 28.3043 15.8834 28.1378 16.0053C27.9893 16.1134 27.8128 16.1885 27.7001 16.3512C27.6642 16.4029 27.5446 16.4156 27.4738 16.4672C27.4678 16.4711 27.4548 16.4682 27.4508 16.4731C27.3411 16.6114 27.1786 16.6728 27.0261 16.744C26.9443 16.782 26.8546 16.7986 26.7818 16.8609C26.6003 17.0178 26.3391 17.05 26.1586 17.1884C25.9781 17.3258 25.8126 17.4369 25.5813 17.4564C25.5274 17.4613 25.4746 17.5373 25.4317 17.5889C25.4138 17.6113 25.4008 17.6269 25.3719 17.6347C25.2024 17.6776 25.0249 17.7 24.8933 17.8335C24.8783 17.8482 24.8394 17.8433 24.8115 17.8423C24.5483 17.8374 24.3439 17.9797 24.1355 18.1054C24.0378 18.1649 23.9211 18.1668 23.8204 18.1961C23.6659 18.2419 23.5153 18.3354 23.3478 18.3296C23.2042 18.3247 23.1025 18.3754 23.0277 18.4875C23.0048 18.5226 22.9719 18.5118 22.942 18.5128C22.8064 18.5177 22.6459 18.4758 22.5412 18.5333C22.3318 18.6483 22.0975 18.5547 21.905 18.6424C21.5311 18.812 21.1383 18.7935 20.7474 18.8393C20.5011 18.8675 20.2349 18.8461 20.0115 18.9241C19.5549 19.0839 19.0862 18.925 18.6435 19.0264C18.2208 19.1229 17.785 19.0254 17.3832 19.1248C16.9126 19.2408 16.4489 19.1531 15.9853 19.2038C15.7909 19.2252 15.6184 19.3197 15.4339 19.3636C15.2405 19.4094 15.061 19.4991 14.8526 19.5078C14.6731 19.5156 14.4936 19.578 14.3311 19.6716C14.2972 19.6911 14.2464 19.6842 14.2025 19.6842C13.9133 19.6862 13.704 19.8158 13.5454 20.0497C13.3889 20.2826 13.2124 20.497 12.9851 20.6763C12.7956 20.8264 12.659 21.0389 12.4805 21.2055C12.2801 21.3926 12.1744 21.6694 11.9341 21.8039C11.8185 21.8682 11.7168 21.9345 11.623 22.0242C11.5373 22.106 11.4575 22.2064 11.3528 22.2522C11.1943 22.3214 11.0946 22.4608 10.935 22.5358C10.8473 22.5777 10.7296 22.642 10.6459 22.6761C10.4485 22.7561 10.2899 22.9227 10.0536 22.9285C9.92897 22.9315 9.87413 23.0806 9.78041 23.1546C9.76346 23.1673 9.75448 23.1985 9.72956 23.1917C9.57102 23.1478 9.45236 23.2638 9.32673 23.3086C9.0964 23.3915 8.85212 23.4265 8.62977 23.5172C8.50114 23.5698 8.3775 23.5835 8.24888 23.5951C8.16911 23.6029 8.11626 23.677 8.09632 23.7072C8.04547 23.7832 7.98764 23.7696 7.92582 23.7715C7.8301 23.7754 7.73239 23.7891 7.63966 23.7745C7.33156 23.7248 7.05137 23.8875 6.74926 23.8748C6.71037 23.8729 6.69043 23.8943 6.69043 23.9323C6.69142 24.137 6.53787 24.2549 6.42121 24.3933C6.41423 24.4021 6.40327 24.4128 6.40426 24.4226C6.41523 24.5804 6.27963 24.6925 6.27464 24.8543C6.27165 24.9517 6.20684 25.0628 6.12308 25.1437C6.05927 25.2051 6.05428 25.2977 6.01639 25.3718C5.96056 25.479 5.85985 25.5872 5.8788 25.7226C5.89176 25.8133 5.80601 25.8464 5.77011 25.8834C5.66342 25.9945 5.61556 26.1397 5.52284 26.2586C5.42711 26.3814 5.36829 26.5559 5.27955 26.6962C5.20975 26.8063 5.21075 26.9701 5.03426 27.0227C4.96546 27.0431 4.9864 27.1757 4.90464 27.2449C4.75308 27.3745 4.69425 27.5811 4.52176 27.7068C4.46891 27.7448 4.46891 27.8598 4.39712 27.9232C4.27149 28.0333 4.15184 28.1502 4.04016 28.274C3.98732 28.3325 3.8896 28.3686 3.89559 28.466C3.90655 28.656 3.753 28.7477 3.62936 28.8169C3.39405 28.9504 3.2046 29.1268 3.0012 29.2963C2.85762 29.4162 2.77286 29.6228 2.54054 29.6501C2.50465 29.654 2.42189 29.7466 2.36505 29.8021C2.25238 29.9132 2.10581 29.9941 1.94328 30.0195C1.87548 30.0302 1.88545 30.0896 1.84058 30.1179C1.59331 30.268 1.33905 30.3878 1.0459 30.4366C0.966137 30.4502 0.88637 30.5155 0.789652 30.5175C0.541377 30.5223 0.491523 30.4151 0.573284 30.1851C0.628124 30.0292 0.602199 29.847 0.613167 29.6764C0.630118 29.4191 0.742789 29.1735 0.716865 28.9094C0.708888 28.8324 0.794638 28.851 0.836515 28.851C1.07582 28.8461 1.31512 28.8471 1.55442 28.851C1.85056 28.8558 2.11379 28.7954 2.34312 28.5859C2.43286 28.504 2.55749 28.4426 2.65521 28.3598C2.72401 28.3023 2.70406 28.199 2.78981 28.1317C2.95134 28.005 3.0002 27.7867 3.12284 27.6396C3.22155 27.5217 3.3073 27.3901 3.36513 27.2653C3.41898 27.1494 3.49675 27.0344 3.52666 26.895C3.55458 26.7664 3.59147 26.6251 3.66725 26.4974C3.71711 26.4126 3.75101 26.2947 3.80485 26.208C3.93048 26.0072 3.8238 25.7616 3.92051 25.594C3.9933 25.4683 3.90456 25.2841 4.07905 25.2119C4.08603 25.209 4.08703 25.1905 4.08802 25.1788C4.096 24.942 4.16979 24.7139 4.22163 24.4888C4.27249 24.2676 4.2316 24.0191 4.32433 23.8359C4.45096 23.5874 4.36023 23.3505 4.39812 23.1127C4.40809 23.0504 4.42604 23.0309 4.48187 23.0007C4.62944 22.9217 4.76505 22.8213 4.90763 22.7336C4.93555 22.7161 4.97344 22.7141 5.00734 22.7083C5.04124 22.7024 5.0901 22.7102 5.08711 22.6605C5.07614 22.5163 5.17585 22.5183 5.27257 22.5251C5.35134 22.5309 5.37726 22.4705 5.42811 22.4354C5.5677 22.3409 5.68935 22.2308 5.77311 22.0914C5.83293 21.992 5.97252 22.0436 6.02138 21.9277C6.07722 21.7942 6.26367 21.7649 6.29857 21.5914C6.31652 21.5018 6.42919 21.4277 6.50297 21.3507C6.59072 21.2601 6.66849 21.1568 6.68345 21.0379C6.69442 20.9502 6.7692 20.8995 6.8031 20.8781C6.88586 20.8245 6.88087 20.7621 6.88087 20.6929C6.88087 20.6227 6.92773 20.5993 6.9726 20.5555C7.09026 20.4395 7.16404 20.2826 7.18598 20.1238C7.20293 20.0039 7.25977 19.8626 7.31161 19.8187C7.40634 19.7408 7.42129 19.6267 7.45819 19.5517C7.52399 19.4182 7.63168 19.2622 7.57584 19.0898C7.52898 18.9445 7.6576 18.8588 7.70746 18.7594C7.79221 18.5898 7.72042 18.4115 7.79022 18.2575C7.91685 17.9778 7.80717 17.662 7.90688 17.4038C8.02752 17.089 7.94177 16.7869 7.97767 16.4828C7.99263 16.3503 7.88594 16.2947 7.76629 16.3581C7.48511 16.5072 7.19396 16.6007 6.86392 16.5734C6.58274 16.551 6.29757 16.5549 6.0154 16.5686C5.81199 16.5783 5.65545 16.4877 5.49093 16.4C5.45204 16.3795 5.3982 16.3736 5.35333 16.3795C5.23169 16.3951 5.1938 16.2791 5.10805 16.2401C5.16089 16.1914 5.18781 16.1271 5.25063 16.0784C5.41914 15.9487 5.64947 16.0423 5.81399 15.9078C5.85487 15.8737 5.93663 15.8883 5.99944 15.8805C6.23177 15.8503 6.41423 15.7148 6.61764 15.6213C6.70837 15.5804 6.79512 15.4975 6.9068 15.5014C7.00551 15.5043 7.0783 15.4254 7.13513 15.3864C7.32059 15.2597 7.53297 15.1798 7.71544 15.0434C7.82512 14.9615 7.95374 14.865 8.09034 14.7978C8.23193 14.7276 8.36554 14.636 8.49317 14.5395C8.55698 14.4918 8.65868 14.4937 8.7215 14.4216C8.81921 14.3095 8.94983 14.2384 9.08045 14.1672C9.15822 14.1244 9.24796 14.0825 9.32075 14.06C9.50421 14.0025 9.6448 13.87 9.83226 13.8203C9.92897 13.795 9.9868 13.6575 10.0905 13.601C10.1065 13.5922 10.1194 13.5689 10.1344 13.5679C10.3218 13.5572 10.4834 13.4568 10.6658 13.4207C10.7625 13.4022 10.9011 13.3817 10.9829 13.2726C11.0248 13.217 11.1195 13.2385 11.1923 13.1927C11.2661 13.1459 11.3608 13.0855 11.4635 13.0611C11.628 13.0221 11.7556 12.8906 11.9311 12.8701C12.0687 12.8535 12.1774 12.7785 12.2831 12.6976C12.302 12.683 12.335 12.682 12.3619 12.681C12.4775 12.6781 12.6012 12.7025 12.7069 12.6703C13.1595 12.5329 13.6352 12.6401 14.0799 12.5475C14.3102 12.4998 14.5545 12.5339 14.7619 12.4462C14.9633 12.3604 15.1846 12.454 15.3551 12.3565C15.5296 12.2561 15.736 12.3497 15.9025 12.2123C15.9963 12.1343 16.1618 12.2016 16.2874 12.1713C16.4669 12.1275 16.6643 12.1236 16.8238 12.0641C17.0701 11.9725 17.3114 11.918 17.5697 11.876C17.7711 11.8439 17.9805 11.7922 18.1819 11.725C18.3334 11.6743 18.487 11.5847 18.6545 11.5963C18.8808 11.6119 19.0703 11.4502 19.3046 11.4765C19.3285 11.4794 19.4861 11.4229 19.5688 11.341C19.6376 11.2738 19.8211 11.3342 19.9328 11.2894C20.1781 11.1929 20.4772 11.1958 20.6507 10.9522C20.6587 10.9414 20.6766 10.9258 20.6856 10.9288C20.8411 10.9726 20.9388 10.8196 21.0784 10.8177C21.1392 10.8167 21.1223 10.7592 21.1512 10.7407C21.2579 10.6705 21.3616 10.5877 21.4793 10.5438C21.552 10.5175 21.5371 10.4493 21.6009 10.4171C21.8352 10.2992 21.9459 10.0565 22.1244 9.87917C22.2929 9.71155 22.3926 9.49032 22.605 9.34901C22.7097 9.27981 22.7535 9.11804 22.8144 8.99329C22.8592 8.90168 22.923 8.82762 22.9928 8.75453C23.0537 8.69118 23.0297 8.60737 23.0297 8.53428C23.0307 8.35593 23.0995 8.2117 23.2132 8.07526C23.268 8.00996 23.3069 7.9164 23.3159 7.83259C23.3358 7.66009 23.3947 7.51391 23.5173 7.38917C23.5223 7.38429 23.5263 7.37455 23.5253 7.36773C23.4944 7.16502 23.6549 7.00226 23.6409 6.79273C23.631 6.63973 23.7187 6.4838 23.7995 6.34054C23.8513 6.24795 23.9122 6.13685 23.9042 6.0394C23.8842 5.78504 23.954 5.54335 24.0557 5.33284C24.1235 5.19153 24.0767 5.03462 24.1515 4.93522C24.2861 4.75493 24.2033 4.56781 24.2352 4.38849C24.2472 4.3193 24.2143 4.29006 24.1415 4.29103C23.962 4.29396 23.7825 4.29201 23.6031 4.29201C23.606 4.29688 23.606 4.29688 23.606 4.29786Z" fill="#F7A728"/>
<path d="M34.4912 17.857C34.4733 17.7098 34.4743 17.5656 34.4254 17.4116C34.3726 17.2469 34.2599 17.0705 34.3078 16.8766C34.3128 16.8542 34.3048 16.8298 34.3028 16.8064C34.3008 16.7791 34.2848 16.7655 34.2559 16.7655C34.229 16.7655 34.2111 16.7772 34.2071 16.8054C34.1642 17.1173 34.0844 17.4233 34.0266 17.7322C33.9907 17.9213 33.878 18.0919 33.89 18.2907C33.891 18.3014 33.875 18.3238 33.8661 18.3238C33.6786 18.3374 33.7155 18.4807 33.7095 18.5908C33.7015 18.7585 33.6437 18.8842 33.537 19.0265C33.4473 19.1463 33.2778 19.2506 33.2868 19.4368C33.2888 19.4777 33.2638 19.4865 33.2279 19.4923C33.0754 19.5157 33.0156 19.6619 32.9009 19.7379C32.8032 19.8022 32.7154 19.8909 32.6466 19.9854C32.5878 20.0663 32.4602 20.0634 32.4342 20.1306C32.3136 20.4396 31.9975 20.5068 31.7562 20.6442C31.6136 20.7251 31.4302 20.7573 31.2776 20.8538C31.2218 20.8898 31.1899 20.9668 31.0922 20.961C30.9476 20.9522 30.8489 21.0789 30.7153 21.1208C30.5507 21.1724 30.4032 21.2621 30.2496 21.3391C30.1559 21.3859 30.0442 21.4327 29.9405 21.4707C29.785 21.5282 29.6384 21.6149 29.4769 21.6763C29.3881 21.7094 29.2785 21.724 29.1927 21.801C29.11 21.8751 28.9614 21.8761 28.8637 21.8293C28.8078 21.803 28.7301 21.7192 28.7311 21.6149C28.7321 21.5028 28.753 21.3547 28.6922 21.2855C28.4748 21.0399 28.4848 20.7193 28.4489 20.4503C28.396 20.0556 28.3292 19.6326 28.4987 19.2292C28.5466 19.1151 28.5456 18.9875 28.5975 18.8608C28.6972 18.6132 28.8507 18.4066 29.0412 18.2488C29.2306 18.0928 29.4559 17.9496 29.7262 17.9301C29.7501 17.9281 29.781 17.933 29.7959 17.9213C29.9345 17.8034 30.0881 17.7332 30.2765 17.7391C30.3204 17.74 30.3693 17.7225 30.4112 17.703C30.5109 17.6553 30.6036 17.5909 30.7073 17.5549C30.7841 17.5276 30.806 17.4935 30.81 17.4175C30.819 17.206 30.7561 17.0062 30.7322 16.8015C30.6933 16.4702 30.7183 16.132 30.7143 15.7968C30.7143 15.7617 30.7322 15.6964 30.6784 15.7013C30.5507 15.713 30.4072 15.6165 30.2915 15.7695C30.2556 15.8163 30.1958 15.8835 30.105 15.9001C29.9345 15.9313 29.8418 16.1437 29.6354 16.1057C29.6334 16.1047 29.6284 16.1096 29.6264 16.1125C29.5517 16.2704 29.3612 16.2763 29.2466 16.3864C29.2186 16.4137 29.2067 16.4682 29.1419 16.4663C28.9584 16.4585 28.8487 16.5998 28.744 16.7041C28.6044 16.8434 28.4359 16.9711 28.2774 17.0335C28.067 17.1173 27.9384 17.2888 27.7469 17.3892C27.5545 17.4906 27.3341 17.588 27.1626 17.742C27.1248 17.7761 27.1238 17.8628 27.03 17.8414C26.681 17.7615 26.5075 18.088 26.2314 18.1854C26.1197 18.2254 26.0379 18.3277 25.8973 18.3482C25.8206 18.3599 25.7218 18.4115 25.6491 18.4622C25.5543 18.5275 25.4815 18.6201 25.3499 18.6181C25.316 18.6171 25.2682 18.624 25.2502 18.6464C25.1455 18.7682 24.979 18.7516 24.8494 18.8004C24.7038 18.8549 24.5513 18.9524 24.3748 18.928C24.3638 18.9261 24.3429 18.9378 24.3379 18.9485C24.283 19.0538 24.1554 19.0362 24.0687 19.0898C23.963 19.1551 23.8124 19.1083 23.6748 19.1882C23.4704 19.3062 23.2132 19.313 22.9828 19.39C22.8014 19.4514 22.596 19.4309 22.4055 19.5011C22.245 19.5615 22.0645 19.4826 21.885 19.5868C21.7435 19.6687 21.5361 19.5946 21.3566 19.6823C21.1931 19.7623 20.9946 19.6823 20.7982 19.7632C20.5729 19.8548 20.2997 19.8071 20.0424 19.8568C19.5768 19.9484 19.0862 19.85 18.6126 19.9679C18.3065 20.0429 17.9884 19.9689 17.6703 20.0507C17.2107 20.1696 16.7181 20.001 16.2465 20.1667C16.0192 20.2466 15.7619 20.1501 15.5107 20.2612C15.3252 20.3421 15.1098 20.4016 14.9064 20.4474C14.708 20.4922 14.5156 20.5809 14.3072 20.5799C14.1297 20.5789 14.034 20.7212 13.9931 20.8255C13.9333 20.9756 13.7947 21.0341 13.7209 21.1559C13.6501 21.2738 13.4796 21.3245 13.4706 21.4824C13.4646 21.6071 13.3779 21.6675 13.2991 21.7416C13.1805 21.8507 13.0817 21.9872 12.9491 22.0749C12.8474 22.1412 12.8763 22.2659 12.7687 22.3283C12.6959 22.3712 12.5862 22.4754 12.7517 22.5865C12.8554 22.6557 12.9671 22.7415 12.988 22.8857C12.989 22.8964 13.0309 22.8994 13.0508 22.9101C13.2124 22.9949 13.3689 23.1167 13.4337 23.2648C13.5135 23.4471 13.6601 23.5611 13.7887 23.6771C13.9183 23.794 14.025 23.9314 14.1586 24.0435C14.2842 24.1478 14.4119 24.254 14.5205 24.3749C14.6113 24.4743 14.7419 24.5493 14.7698 24.6955C14.7758 24.7237 14.7798 24.7423 14.8147 24.754C15.0071 24.8154 15.1208 24.9771 15.2604 25.1048C15.382 25.2149 15.5176 25.3192 15.6114 25.4508C15.6812 25.5482 15.8207 25.518 15.8776 25.6311C15.8866 25.6496 15.9354 25.7831 16.0232 25.7334C16.0989 25.6905 16.0581 25.597 16.059 25.5278C16.067 24.1556 16.073 22.7844 16.074 21.4122C16.074 21.2865 16.1209 21.2524 16.2375 21.2533C16.6005 21.2553 16.9634 21.2494 17.3254 21.2533C17.4799 21.2553 17.5537 21.3401 17.5537 21.4921C17.5527 22.7239 17.5527 23.9558 17.5527 25.1876C17.5527 26.4351 17.5537 27.6825 17.5517 28.929C17.5517 28.9699 17.5806 29.0401 17.5118 29.045C17.451 29.0489 17.3862 29.082 17.3264 28.9953C17.2376 28.8666 17.102 28.774 16.9903 28.6629C16.9175 28.5908 16.8198 28.5869 16.752 28.5226C16.6653 28.4398 16.5785 28.3579 16.4938 28.2731C16.3771 28.1552 16.2645 28.0334 16.1478 27.9154C16.068 27.8355 15.9853 27.7585 15.9025 27.6815C15.8247 27.6085 15.726 27.548 15.6702 27.4613C15.5785 27.3161 15.4309 27.2303 15.3182 27.1095C15.2016 26.9857 15.0709 26.8746 14.9483 26.7557C14.8675 26.6777 14.7987 26.5822 14.716 26.5101C14.5036 26.3211 14.2832 26.1456 14.1337 25.8981C14.0808 25.8114 13.9881 25.6944 13.9253 25.6749C13.8136 25.6408 13.7558 25.5161 13.6301 25.5287C13.5883 25.5336 13.5763 25.5083 13.5743 25.4722C13.5643 25.3134 13.4158 25.2539 13.32 25.1701C13.1914 25.057 13.0877 24.9226 12.9601 24.8115C12.8714 24.7335 12.8245 24.6117 12.6929 24.5746C12.5363 24.5308 12.4356 24.4051 12.3798 24.2755C12.325 24.1478 12.2462 24.1907 12.1644 24.1887C12.0557 24.1858 12.0856 24.2647 12.0847 24.3203C12.0827 25.3221 12.0817 26.324 12.0817 27.3249C12.0807 27.6952 12.0777 28.0655 12.0866 28.4359C12.0906 28.6084 12.0298 28.6736 11.8473 28.6668C11.5572 28.6571 11.266 28.6707 10.9749 28.6746C10.6907 28.6795 10.6907 28.6805 10.6897 28.4144C10.6887 27.8024 10.6867 27.1904 10.6867 26.5783C10.6857 25.7139 10.6867 24.8485 10.6877 23.9831C10.6877 23.9168 10.6927 23.8252 10.6379 23.8028C10.5721 23.7755 10.4474 23.7667 10.4105 23.8067C10.2759 23.9499 10.0815 23.9655 9.92595 24.061C9.68765 24.2082 9.40248 24.2784 9.13726 24.3485C8.90194 24.4109 8.66962 24.5093 8.43331 24.5396C8.14715 24.5756 7.87195 24.6731 7.57881 24.6711C7.47012 24.6711 7.33651 24.7189 7.29164 24.8251C7.24977 24.9235 7.18695 25.0122 7.14806 25.1146C7.12314 25.1828 7.11516 25.2822 7.06032 25.326C6.9307 25.4303 6.98354 25.596 6.89281 25.7198C6.80108 25.8464 6.75521 26.0102 6.63356 26.1232C6.61163 26.1437 6.59966 26.1603 6.59468 26.1875C6.56078 26.3708 6.39925 26.4955 6.35039 26.6807C6.33843 26.7235 6.29755 26.8356 6.23672 26.9077C6.14798 27.014 6.02833 27.0988 5.96751 27.2401C5.93161 27.3258 5.90669 27.4321 5.81595 27.5129C5.74017 27.5802 5.63947 27.6523 5.60158 27.7595C5.5597 27.8823 5.4919 27.9856 5.40714 28.084C5.33835 28.164 5.22767 28.2351 5.20374 28.317C5.14292 28.5236 4.96543 28.6249 4.83781 28.7643C4.70819 28.9066 4.65434 29.0099 4.77898 29.1639C4.89763 29.3091 5.00233 29.4611 5.10503 29.6161C5.12497 29.6453 5.1838 29.6326 5.18679 29.696C5.19576 29.8577 5.36128 29.9104 5.44503 30.0215C5.53976 30.1472 5.66738 30.2505 5.78105 30.3635C5.8668 30.4493 5.95953 30.5302 6.03631 30.6228C6.11408 30.7173 6.23772 30.769 6.2806 30.8947C6.32846 31.0311 6.4152 31.1403 6.55978 31.1909C6.61163 31.2095 6.6555 31.2212 6.67544 31.2855C6.71632 31.4131 6.84993 31.4736 6.92471 31.5827C6.99451 31.686 7.11217 31.7591 7.20988 31.8439C7.25675 31.8839 7.35546 31.8829 7.35845 31.8644C7.3744 31.7737 7.46215 31.7308 7.50502 31.6665C7.56584 31.5759 7.5798 31.4638 7.66954 31.379C7.77822 31.2777 7.91782 31.1617 7.96468 31.0438C8.04046 30.8528 8.18204 30.7232 8.31665 30.6101C8.47419 30.4766 8.52903 30.2456 8.75338 30.1832C8.75836 30.1813 8.75737 30.1608 8.76135 30.1501C8.82317 29.9552 9.00963 29.8665 9.13526 29.7262C9.20207 29.6511 9.33867 29.656 9.35761 29.5936C9.41744 29.4016 9.61586 29.3422 9.7385 29.2905C9.93493 29.2077 10.1543 29.1005 10.3986 29.1414C10.5342 29.1648 10.6778 29.1551 10.8164 29.1434C10.9609 29.1317 11.0497 29.2389 11.1584 29.2925C11.2192 29.3217 11.3269 29.3149 11.3438 29.3831C11.3827 29.5332 11.5143 29.6131 11.5951 29.7291C11.7227 29.9152 11.7038 30.1179 11.6429 30.2729C11.5721 30.4522 11.3667 30.5692 11.2152 30.7095C11.1434 30.7758 11.0517 30.7855 10.9859 30.843C10.8732 30.9424 10.7815 31.0623 10.6259 31.1149C10.5023 31.1559 10.4514 31.3196 10.2959 31.3215C10.3078 31.5155 10.0915 31.4726 10.0157 31.5817C9.95088 31.6743 9.82525 31.7396 9.79035 31.839C9.75445 31.9423 9.6687 31.9842 9.61985 32.0622C9.58096 32.1216 9.46031 32.1762 9.51914 32.2435C9.56501 32.2961 9.69463 32.2883 9.76742 32.2454C9.90701 32.1645 10.0426 32.0836 10.2081 32.0671C10.2341 32.0641 10.262 32.071 10.2829 32.0427C10.3527 31.9472 10.4813 31.9082 10.5701 31.8994C10.8662 31.8683 11.1663 31.8819 11.4655 31.879C11.4974 31.878 11.5353 31.8761 11.5592 31.8907C11.7347 32.0028 11.8643 32.0086 11.9401 31.8517C12.0388 31.65 12.2442 31.6003 12.3987 31.4872C12.5692 31.3625 12.8095 31.3478 13.0119 31.3079C13.3101 31.2504 13.6461 31.2319 13.9063 31.4716C14.0629 31.6158 14.2453 31.7396 14.2792 31.9764C14.2942 32.0817 14.366 32.1675 14.4926 32.1704C14.6163 32.1733 14.7937 32.2386 14.8516 32.1363C14.9732 31.9228 15.1507 31.7328 15.1746 31.4648C15.1826 31.382 15.2454 31.2718 15.3252 31.19C15.4169 31.0935 15.5356 31.0409 15.6323 30.9619C15.7539 30.8635 15.8656 30.7972 16.0291 30.7992C16.2246 30.8021 16.412 30.8089 16.5855 30.9171C16.7271 31.0058 16.8637 31.1149 16.9345 31.2484C16.9814 31.3381 17.0861 31.419 17.0701 31.5535C17.0651 31.5954 17.1469 31.6646 17.1668 31.7386C17.1778 31.7796 17.2396 31.7757 17.2605 31.7347C17.2845 31.6889 17.3254 31.6909 17.3603 31.6821C17.5427 31.6392 17.7202 31.5769 17.9166 31.5934C18.0642 31.6051 18.1549 31.496 18.146 31.3693C18.138 31.2455 18.2138 31.1714 18.2676 31.0974C18.3793 30.9434 18.3683 30.8118 18.2168 30.7066C18.0871 30.6159 17.9934 30.4834 17.9575 30.3353C17.8997 30.1014 17.9814 29.9104 18.13 29.7047C18.2885 29.4845 18.5109 29.427 18.7283 29.3568C18.9376 29.2886 19.171 29.3256 19.3933 29.3295C19.4432 29.3305 19.517 29.3247 19.5399 29.3822C19.5788 29.4806 19.6546 29.4299 19.7124 29.4309C19.7852 29.4319 19.8261 29.3763 19.83 29.31C19.857 28.892 19.9178 28.4709 19.9288 28.0597C19.9736 26.3454 19.9487 24.6302 19.9497 22.915C19.9497 22.6752 19.8959 22.6216 19.6476 22.6206C19.2846 22.6187 18.9217 22.6187 18.5588 22.6187C18.3045 22.6187 18.2556 22.5758 18.2536 22.3293C18.2507 22.0369 18.2656 21.7435 18.2487 21.4531C18.2377 21.2787 18.3085 21.2485 18.462 21.2485C19.9218 21.2524 21.3815 21.2504 22.8403 21.2504C22.9001 21.2504 22.9599 21.2543 23.0197 21.2563C23.0955 21.2592 23.1264 21.2923 23.1254 21.3722C23.1214 21.727 23.1164 22.0817 23.1274 22.4355C23.1324 22.5826 23.0796 22.6216 22.941 22.6206C22.4903 22.6158 22.0396 22.6197 21.5889 22.6197C21.5171 22.6197 21.4463 22.6265 21.4463 22.7142C21.4473 22.8857 21.3566 23.0436 21.3616 23.2122C21.3965 24.3768 21.2708 25.5443 21.4234 26.707C21.4334 26.784 21.4264 26.8629 21.4264 26.9409C21.4274 27.2566 21.4533 27.5753 21.4194 27.8872C21.4044 28.0265 21.4304 28.1445 21.4822 28.2497C21.552 28.3891 21.6507 28.5128 21.6328 28.6785C21.6148 28.8539 21.6138 29.0274 21.5789 29.2058C21.5161 29.5274 21.546 29.8655 21.5401 30.1959C21.5381 30.3236 21.6378 30.3392 21.7145 30.2973C21.7534 30.2768 21.8093 30.2329 21.8392 30.1852C21.9249 30.0488 22.0725 29.9747 22.2091 29.9474C22.4384 29.9016 22.6578 29.8022 22.9041 29.8207C23.1204 29.8373 23.3398 29.8158 23.5582 29.809C23.6987 29.8041 23.8074 29.8938 23.9171 29.9503C24.0717 30.0302 24.1405 30.2096 24.2462 30.345C24.312 30.4288 24.3728 30.5419 24.5164 30.4815C24.8294 30.3479 25.1395 30.3928 25.4526 30.4844C25.5025 30.499 25.5852 30.5243 25.6062 30.4737C25.653 30.3577 25.7697 30.2768 25.7986 30.1696C25.8465 29.9893 25.9043 29.8178 26.028 29.6794C26.0928 29.6083 26.1037 29.5176 26.1576 29.4504C26.2373 29.351 26.3331 29.2623 26.4308 29.1785C26.5544 29.0713 26.69 28.9689 26.8625 28.9611C27.0729 28.9514 27.2853 28.9602 27.4967 28.966C27.5405 28.967 27.5944 28.9504 27.6223 29.0225C27.6432 29.0761 27.9783 29.0732 28.0161 29.0294C28.1208 28.9066 28.2056 28.7701 28.3103 28.6464C28.5007 28.4203 28.7091 28.2819 29.0073 28.2702C29.0422 28.2682 29.1129 28.2838 29.104 28.2166C29.088 28.0918 29.1897 27.9164 28.9624 27.8735C28.9245 27.8657 28.9255 27.8336 28.9295 27.8082C28.9604 27.625 28.8826 27.4467 28.9863 27.2469C29.0571 27.1104 29.091 26.9545 29.2176 26.8483C29.3074 26.7733 29.3931 26.669 29.4978 26.6417C29.7311 26.5813 29.9675 26.6232 30.1898 26.7187C30.2008 26.7236 30.2038 26.7469 30.2147 26.7547C30.3134 26.822 30.3882 26.9155 30.473 26.9955C30.5866 27.1007 30.7542 27.1894 30.7322 27.3901C30.7262 27.4399 30.7183 27.5042 30.7631 27.5451C30.9296 27.6962 30.9785 27.9106 30.9915 28.1045C31.0064 28.3335 31.0642 28.5742 30.9247 28.8072C30.8449 28.9417 30.9635 29.158 30.806 29.2808C30.7123 29.3529 30.7392 29.4728 30.6385 29.5439C30.467 29.6667 30.467 29.8275 30.6106 29.9932C30.6654 30.0566 30.7422 30.0312 30.81 30.0205C30.8608 30.0127 30.9107 30 30.9097 29.9299C30.9087 29.888 30.9336 29.8636 30.9695 29.8314C31.0593 29.7515 31.147 29.657 31.1999 29.5517C31.2687 29.4143 31.3664 29.2818 31.4551 29.1755C31.5827 29.0216 31.6525 28.8286 31.8151 28.698C31.9327 28.6035 31.9886 28.4592 32.0225 28.3121C32.0254 28.2984 32.0574 28.2848 32.0783 28.2809C32.1969 28.2604 32.2199 28.1776 32.2249 28.0782C32.2269 28.0392 32.2358 28.008 32.2687 27.97C32.3615 27.8638 32.4562 27.7488 32.505 27.6211C32.5429 27.5207 32.5978 27.4233 32.6357 27.3249C32.7035 27.1543 32.8361 27.0062 32.9238 26.8337C32.9886 26.707 33.0624 26.5725 33.1372 26.4614C33.219 26.3376 33.193 26.1983 33.2778 26.0745C33.3546 25.9624 33.4513 25.786 33.4293 25.6096C33.4264 25.5931 33.4333 25.5667 33.4453 25.557C33.6587 25.3835 33.6657 25.1077 33.7903 24.8904C33.8501 24.7851 33.8382 24.6448 33.8691 24.522C33.9119 24.3524 34.0485 24.2053 34.0156 24.0162C34.0136 24.0065 34.0226 23.9948 34.0266 23.9841C34.0824 23.8398 34.1522 23.6995 34.1901 23.5514C34.2509 23.3126 34.1572 23.0582 34.2948 22.8175C34.3646 22.6967 34.2858 22.5281 34.3895 22.3799C34.4613 22.2747 34.4504 22.1032 34.4683 21.9716C34.5112 21.6568 34.57 21.3371 34.578 21.0214C34.6039 19.9659 34.6249 18.9085 34.4912 17.857ZM28.392 26.7927C28.3781 26.9672 28.3691 27.1709 28.2993 27.3317C28.2445 27.4554 28.2006 27.6046 28.069 27.7118C27.9962 27.7712 27.9115 27.9028 27.9144 28.0334C27.9164 28.1123 27.8756 28.1493 27.8068 28.1737C27.723 28.2029 27.6702 28.2731 27.6113 28.3326C27.5545 28.391 27.4319 28.3462 27.4139 28.4583C27.2833 28.4261 27.1985 28.5323 27.0958 28.5713C26.5066 28.7925 25.9013 28.6298 25.3051 28.6678C24.9252 28.6912 24.5413 28.6863 24.1584 28.661C24.0557 28.6542 24.0338 28.6142 24.0338 28.5275C24.0348 28.1143 24.0318 27.701 24.0308 27.2888V24.9508C24.0318 24.9508 24.0318 24.9508 24.0328 24.9508C24.0328 23.7774 24.0348 22.6051 24.0298 21.4317C24.0288 21.2904 24.0717 21.2494 24.2162 21.2494C25.0339 21.2514 25.8525 21.2134 26.6661 21.2796C26.8825 21.2982 27.1507 21.3069 27.3371 21.5252C27.4169 21.6178 27.5316 21.7309 27.6891 21.7679C27.737 21.7786 27.7888 21.9199 27.8357 21.9726C27.9434 22.0954 27.9334 22.2474 27.9962 22.376C28.078 22.5446 28.1318 22.7444 28.1238 22.9461C28.1159 23.1645 28.1617 23.3886 28.1019 23.5981C28.062 23.7394 28.074 23.908 27.9992 24.0172C27.9154 24.139 27.9214 24.3154 27.7539 24.3963C27.7051 24.4197 27.6871 24.5366 27.6303 24.6049C27.5954 24.6458 27.6063 24.7374 27.717 24.7657C27.8506 24.7988 27.9464 24.9128 28.0002 25.0239C28.078 25.1867 28.1597 25.3543 28.2465 25.5092C28.3033 25.6106 28.2824 25.711 28.3292 25.7958C28.5077 26.1193 28.418 26.4663 28.392 26.7927Z" fill="#37B652"/>
<path d="M1.72491 19.7846C1.72491 19.2115 1.695 18.7964 1.73588 18.3871C1.7618 18.123 1.78873 17.8559 1.83659 17.5957C1.85952 17.4739 1.85055 17.3228 1.91336 17.2283C2.06193 17.0071 1.91436 16.7401 2.02803 16.5559C2.10879 16.4253 2.01307 16.244 2.18158 16.1631C2.19155 16.1582 2.19454 16.1261 2.19055 16.1085C2.13771 15.8737 2.2783 15.6729 2.32117 15.4556C2.36205 15.2529 2.4498 15.0511 2.52458 14.8592C2.60833 14.6428 2.66018 14.4284 2.722 14.2101C2.75491 14.0951 2.73397 13.9207 2.87854 13.8378C2.88154 13.8359 2.88552 13.831 2.88453 13.8281C2.86459 13.6371 3.00817 13.5133 3.09092 13.3671C3.14975 13.2618 3.19462 13.1498 3.26342 13.0474C3.30829 12.9812 3.36812 12.8915 3.37709 12.8097C3.406 12.5329 3.59445 12.3321 3.71809 12.1041C3.78091 11.9881 3.83774 11.8692 3.89857 11.7523C3.95839 11.6382 4.01622 11.5115 4.11095 11.4287C4.1967 11.3527 4.20966 11.2474 4.28643 11.1675C4.42004 11.0282 4.48785 10.8352 4.65336 10.7143C4.71219 10.6715 4.72715 10.5789 4.75108 10.5185C4.79395 10.4074 4.8817 10.3265 4.9146 10.2095C4.94252 10.1101 5.05818 10.0507 5.12399 9.95906C5.20675 9.84211 5.28552 9.71932 5.40118 9.62089C5.52881 9.51174 5.62253 9.36555 5.75614 9.25835C5.81896 9.20865 5.7701 9.10437 5.88577 9.05467C6.01439 9.00009 6.12008 8.88314 6.22278 8.78179C6.28759 8.71747 6.37135 8.66582 6.39129 8.55862C6.41422 8.4368 6.55182 8.40171 6.6266 8.314C6.71136 8.21459 6.81007 8.12201 6.9028 8.0343C6.98855 7.95341 7.09424 7.87057 7.18796 7.79261C7.32157 7.68248 7.51501 7.64837 7.59577 7.45444C7.62768 7.37842 7.75032 7.28486 7.85003 7.24296C7.9976 7.18156 8.0654 7.03343 8.19004 6.97008C8.31966 6.90381 8.36752 6.74983 8.545 6.72644C8.66366 6.71085 8.76337 6.57441 8.87803 6.50132C8.97674 6.43894 9.07944 6.3678 9.19012 6.34636C9.27587 6.32979 9.32074 6.2606 9.34965 6.22649C9.47728 6.07738 9.66673 6.04717 9.81629 5.94776C9.94193 5.86298 10.1015 5.82594 10.1952 5.69633C10.244 5.62908 10.3348 5.64857 10.4026 5.60862C10.4893 5.55794 10.585 5.48582 10.7017 5.46243C10.9111 5.42053 11.0936 5.31138 11.272 5.19735C11.3488 5.14862 11.4445 5.13401 11.5303 5.08625C11.645 5.02193 11.7686 4.95566 11.8882 4.91181C11.9909 4.8738 12.0907 4.8202 12.1973 4.78706C12.3629 4.73638 12.5453 4.72566 12.6939 4.61749C12.7308 4.5902 12.7936 4.58825 12.8435 4.5902C12.991 4.598 13.0937 4.52296 13.1904 4.4294C13.2074 4.41381 13.2413 4.40503 13.2652 4.40796C13.5424 4.44304 13.7947 4.3222 14.0559 4.27249C14.2105 4.24228 14.373 4.21207 14.5236 4.16627C14.703 4.11169 14.8795 4.00839 15.063 4.01423C15.381 4.02495 15.6891 3.94309 15.9833 3.87877C16.3991 3.78814 16.8159 3.88462 17.2127 3.79496C17.9216 3.6361 18.6326 3.72869 19.3385 3.74623C19.5808 3.75208 19.864 3.74331 20.0903 3.83394C20.2748 3.90801 20.4433 3.8739 20.6168 3.89826C20.7005 3.90996 20.7394 3.9275 20.7394 4.02203C20.7394 4.1458 20.6915 4.26762 20.9139 4.32415C21.0515 4.35923 21.216 4.49567 21.3616 4.56096C21.553 4.64673 21.7225 4.81045 21.9559 4.80753C22.0316 4.80655 22.1024 4.88549 22.1164 4.91181C22.1652 5.00829 22.251 4.95761 22.3068 4.9888C22.4424 5.06579 22.6099 5.04532 22.7396 5.14473C22.7864 5.18079 22.8772 5.16812 22.948 5.17104C23.0178 5.17396 23.0507 5.20223 23.0447 5.27142C23.0347 5.39032 23.0507 5.50044 22.9759 5.62519C22.9061 5.74116 22.9589 5.9234 22.932 6.07153C22.9021 6.24013 22.8403 6.40094 22.7655 6.55882C22.7266 6.63873 22.7226 6.74106 22.7246 6.83267C22.7266 6.96131 22.6777 7.05584 22.5741 7.12698C22.5411 7.1494 22.5461 7.18059 22.5441 7.2108C22.5392 7.29266 22.5282 7.37452 22.5322 7.45541C22.5382 7.60647 22.5152 7.73998 22.3637 7.82087C22.3517 7.82672 22.3517 7.85498 22.3467 7.87252C22.2839 8.14638 22.1523 8.38222 21.9748 8.60442C21.898 8.7009 21.8661 8.83052 21.7564 8.9192C21.56 9.07708 21.4753 9.33339 21.2609 9.48152C21.2399 9.49614 21.2439 9.54682 21.236 9.58093C21.23 9.60919 21.2419 9.65305 21.1941 9.6511C21.0216 9.64428 20.9478 9.79533 20.8541 9.88304C20.7424 9.98732 20.5908 10.0283 20.4951 10.1433C20.3924 10.267 20.208 10.193 20.1242 10.2641C19.9946 10.3752 19.835 10.3421 19.6974 10.4152C19.5349 10.5019 19.3225 10.538 19.1191 10.5613C18.8409 10.5935 18.5498 10.6413 18.3035 10.7592C18.152 10.8313 18.0184 10.8215 17.8778 10.8303C17.6793 10.844 17.5118 10.9034 17.3373 11.0009C17.1559 11.1022 16.9265 11.0935 16.7241 11.1422C16.4489 11.2084 16.1348 11.1665 15.9015 11.3147C15.6463 11.4774 15.386 11.3527 15.1427 11.4248C14.9742 11.4745 14.7888 11.4716 14.6372 11.5778C14.6123 11.5953 14.5684 11.5905 14.5335 11.5915C14.1835 11.6051 13.8296 11.5905 13.4846 11.6392C13.2662 11.6694 13.0429 11.6821 12.8305 11.7328C12.5922 11.7893 12.3409 11.8224 12.1176 11.916C11.8713 12.0183 11.627 12.0826 11.3608 12.108C11.278 12.1158 11.1813 12.184 11.0946 12.2298C10.9619 12.3 10.8293 12.3643 10.6818 12.3974C10.5212 12.4335 10.3717 12.5105 10.262 12.6147C10.1902 12.683 10.0855 12.7151 10.0287 12.7356C9.85917 12.797 9.70861 12.8944 9.55505 12.9744C9.45734 13.026 9.34168 13.063 9.24396 13.1352C9.17516 13.1858 9.06748 13.2687 8.94783 13.2618C8.81721 13.255 8.74542 13.333 8.67363 13.4266C8.63673 13.4743 8.56694 13.5221 8.50911 13.526C8.36353 13.5367 8.26781 13.6663 8.11925 13.6653C8.06839 13.6653 8.06042 13.7316 8.02652 13.7628C7.85901 13.9168 7.64463 14.0045 7.45618 14.1097C7.31659 14.1877 7.19594 14.3056 7.0394 14.3738C6.88485 14.4411 6.71534 14.5492 6.58473 14.675C6.52091 14.7364 6.44015 14.7334 6.37235 14.7714C6.27264 14.827 6.15498 14.8825 6.05926 14.9371C5.93363 15.0092 5.76213 14.9517 5.67339 15.0901C5.6684 15.0979 5.65245 15.0989 5.64048 15.1008C5.3264 15.1681 5.01132 15.2285 4.68627 15.2227C4.43899 15.2178 4.19171 15.2207 3.94443 15.2295C3.58149 15.2422 3.22354 15.3221 2.8586 15.3221C2.78482 15.3221 2.75391 15.4108 2.70405 15.4595C2.75291 15.5043 2.79479 15.5774 2.85063 15.5891C3.01116 15.6222 3.07497 15.7635 3.19263 15.8425C3.26342 15.8902 3.30031 15.9741 3.39504 15.9984C3.52366 16.0316 3.57551 16.1651 3.68519 16.2313C3.75798 16.2762 3.80384 16.359 3.89558 16.3912C4.02021 16.435 4.08602 16.5539 4.19071 16.6251C4.2655 16.6767 4.30638 16.782 4.41606 16.7751C4.50879 16.7703 4.4699 16.8599 4.52175 16.8931C4.7092 17.0129 4.91859 17.0821 5.11402 17.1806C5.28652 17.2673 5.4959 17.2663 5.64048 17.3716C5.76911 17.4651 5.90371 17.4125 6.01838 17.4661C6.29058 17.5928 6.57575 17.5109 6.85294 17.5343C6.94468 17.5421 6.97758 17.5675 6.98556 17.6639C7.00949 17.9475 6.86391 18.2029 6.85195 18.4845C6.84796 18.5761 6.833 18.7262 6.77617 18.8237C6.64854 19.041 6.68045 19.3051 6.51991 19.5205C6.45211 19.6111 6.37434 19.7456 6.35639 19.8976C6.34243 20.0224 6.27862 20.1881 6.15498 20.267C6.04929 20.3352 6.06724 20.4483 6.00641 20.5321C5.87779 20.7094 5.78506 20.9044 5.61456 21.0622C5.53579 21.1353 5.43508 21.2123 5.37526 21.3205C5.33836 21.3858 5.21373 21.3556 5.1559 21.4501C5.06616 21.5973 4.90064 21.6791 4.78199 21.8019C4.72515 21.8604 4.61847 21.8935 4.59154 21.8955C4.41805 21.9062 4.39113 22.0826 4.25552 22.145C4.1279 22.2035 3.92948 22.2054 3.87165 22.3886C3.86666 22.4032 3.82478 22.414 3.80085 22.414C3.72408 22.4149 3.7151 22.4598 3.6832 22.5212C3.53563 22.8048 3.64132 23.1205 3.55856 23.4002C3.49774 23.6068 3.55457 23.8202 3.4748 24.0054C3.40401 24.1701 3.43592 24.3543 3.36712 24.4966C3.30031 24.6369 3.3392 24.7841 3.28037 24.902C3.14277 25.1739 3.09491 25.4565 3.08694 25.7528C3.08494 25.8347 3.01913 25.8278 2.97028 25.8405C2.90347 25.8581 2.90547 25.8045 2.89549 25.7635C2.86259 25.6378 2.76886 25.5326 2.77983 25.3903C2.78382 25.3445 2.70704 25.2762 2.68411 25.2626C2.56446 25.1905 2.60634 25.0852 2.60135 24.9956C2.59039 24.7968 2.4827 24.633 2.41988 24.4537C2.381 24.3426 2.35308 24.2266 2.31918 24.1136C2.26334 23.9245 2.26035 23.7208 2.11477 23.562C2.09184 23.5367 2.10779 23.4792 2.10281 23.4363C2.06293 23.0854 2.01307 22.7346 1.9672 22.3857C1.94527 22.221 1.95025 22.029 1.87846 21.8692C1.7628 21.6109 1.83659 21.3341 1.77477 21.0788C1.6591 20.5935 1.7638 20.1081 1.72491 19.7846Z" fill="#168ECE"/>
<path d="M26.059 34.6086C25.6671 34.5531 25.2962 34.7246 24.9034 34.709C24.7348 34.7022 24.5624 34.6817 24.3779 34.7801C24.2194 34.8659 23.981 34.8679 23.7946 34.8708C23.3718 34.8756 22.968 35.0014 22.5492 35.0023C22.5263 35.0023 22.5024 35.0101 22.4804 35.0189C22.2272 35.1212 21.954 35.1329 21.6887 35.1758C21.5212 35.2021 21.3178 35.1456 21.1842 35.2197C20.9858 35.3308 20.7595 35.2343 20.565 35.3717C20.4444 35.4575 20.2549 35.3756 20.0834 35.4565C19.898 35.5442 19.6557 35.4604 19.4373 35.5559C19.2738 35.628 19.0734 35.5764 18.8819 35.6426C18.6725 35.7157 18.4273 35.6787 18.2019 35.7644C18.0434 35.8249 17.8589 35.7713 17.6794 35.8375C17.4292 35.9301 17.142 35.8161 16.8778 35.9564C16.7143 36.0432 16.4959 35.9311 16.2985 36.0471C16.1599 36.1289 15.9635 36.0549 15.782 36.1348C15.5965 36.2157 15.3602 36.1397 15.1518 36.2517C15.0192 36.3229 14.8397 36.2576 14.6802 36.3336C14.5017 36.4194 14.2834 36.3268 14.0879 36.4281C13.9424 36.5041 13.7649 36.4505 13.5924 36.5275C13.377 36.624 13.1018 36.5207 12.8635 36.6416C12.7329 36.7078 12.5724 36.6484 12.4118 36.7195C12.2752 36.7809 12.0957 36.8394 11.9292 36.8423C11.6839 36.8472 11.4656 36.9797 11.2173 36.9622C11.1684 36.9583 11.0947 37.009 11.0687 37.0538C10.984 37.2019 10.8504 37.1288 10.7457 37.122C10.6589 37.1162 10.6749 37.006 10.6779 36.9388C10.6998 36.4525 10.6669 35.9672 10.7606 35.4799C10.8065 35.2411 10.9012 35.0033 10.8833 34.7529C10.8823 34.7382 10.8843 34.7139 10.8933 34.709C11.0528 34.6301 11.0328 34.4312 11.0408 34.3377C11.0578 34.1389 11.1435 33.9625 11.1894 33.7822C11.2243 33.6438 11.3709 33.5171 11.4157 33.3505C11.4456 33.2384 11.5543 33.137 11.5583 33.0279C11.5653 32.8534 11.6301 32.6809 11.5035 32.4928C11.4117 32.3564 11.338 32.2775 11.1784 32.2784C11.0189 32.2804 10.8594 32.2823 10.6998 32.2872C10.6669 32.2882 10.635 32.2843 10.6031 32.3165C10.5114 32.4081 10.4117 32.4938 10.2621 32.4714C10.2342 32.4675 10.1993 32.4617 10.1763 32.4967C10.1135 32.5961 9.97194 32.6322 9.89915 32.6332C9.66484 32.6381 9.56613 32.8505 9.37369 32.9041C9.23709 32.9421 9.12741 33.0298 9.04066 33.1361C8.93298 33.2686 8.72558 33.1828 8.62388 33.3319C8.60194 33.3641 8.54411 33.407 8.52018 33.4352C8.45138 33.5171 8.33173 33.5054 8.27689 33.5873C8.25994 33.6136 8.24897 33.6321 8.21607 33.6282C8.1712 33.6224 8.1692 33.5863 8.17519 33.5571C8.20311 33.405 8.16123 33.2589 8.25894 33.0951C8.3756 32.9002 8.53514 32.7228 8.60892 32.4938C8.62787 32.4334 8.64482 32.3126 8.71561 32.2736C8.93397 32.1547 8.99978 31.914 9.17327 31.7561C9.29592 31.644 9.41756 31.5193 9.53123 31.3935C9.62396 31.2912 9.76953 31.2405 9.85528 31.1548C10.0268 30.9823 10.2102 30.8332 10.4196 30.7191C10.4735 30.6899 10.4595 30.6246 10.5273 30.6139C10.639 30.5963 10.7118 30.5106 10.8005 30.4502C10.8623 30.4073 10.8623 30.3069 10.975 30.3059C11.0817 30.304 11.1615 30.227 11.1665 30.1061C11.1794 29.8001 11.0239 29.6374 10.7108 29.6296C10.647 29.6286 10.5832 29.6296 10.4844 29.6296C10.3877 29.6637 10.2432 29.6695 10.1165 29.69C9.91112 29.7222 9.81141 29.8576 9.66982 29.9453C9.59803 29.9911 9.51228 30.034 9.44149 30.1003C9.37568 30.1617 9.4026 30.2855 9.32383 30.2874C9.13738 30.2923 9.04465 30.4248 8.92799 30.5242C8.81033 30.6236 8.65279 30.7221 8.61191 30.8507C8.56106 31.0086 8.44141 31.0943 8.34569 31.1879C8.18715 31.3448 8.07149 31.5358 8.00768 31.72C7.94685 31.8954 7.82222 32.0192 7.72949 32.1498C7.60485 32.3272 7.50614 32.5192 7.41042 32.7043C7.33464 32.8505 7.37253 33.0415 7.29974 33.2169C7.23792 33.3612 7.18408 33.523 7.14918 33.6877C7.09634 33.9449 7.0415 34.2032 6.98765 34.4605C6.96372 34.5726 6.89592 34.634 6.83211 34.7051C6.74536 34.8006 6.6287 34.8552 6.51902 34.9215C6.33655 35.0316 6.24283 35.2431 5.99854 35.3084C5.82605 35.3542 5.66153 35.4506 5.47806 35.4789C5.34545 35.4994 5.1909 35.6533 5.19389 35.7888C5.19788 35.9672 5.31254 36.0958 5.41225 36.2264C5.51495 36.3609 5.9457 36.4398 6.07033 36.3307C6.21092 36.2069 6.3914 36.1397 6.51803 35.9935C6.55392 35.9525 6.59081 35.8629 6.69252 35.8707C6.86003 35.8833 6.96472 35.8025 6.98267 35.6319C6.98765 35.5871 7.01757 35.5764 7.05745 35.5734C7.18807 35.5647 7.26086 35.6533 7.28379 35.7498C7.30971 35.8551 7.37353 35.9486 7.42139 36.0286C7.51511 36.1874 7.7265 36.2829 7.81524 36.4437C7.93289 36.6591 8.09741 36.548 8.24299 36.5607C8.34868 36.5704 8.49525 36.5948 8.55608 36.5402C8.6857 36.4233 8.86916 36.4691 8.99479 36.3502C9.06659 36.2829 9.18823 36.2644 9.18923 36.1358C9.19022 36.0919 9.20917 36.0666 9.25404 36.0744C9.36671 36.0909 9.42354 35.9905 9.48337 35.9399C9.53721 35.8941 9.57809 35.8794 9.62994 35.8902C9.70373 35.9048 9.67182 35.974 9.67282 36.0178C9.6788 36.4505 9.66384 36.8832 9.69276 37.315C9.70672 37.5391 9.54918 37.6541 9.41956 37.699C9.268 37.7506 9.19521 37.8637 9.08952 37.9455C9.05063 37.9757 8.94693 38.003 8.96289 38.1014C8.97485 38.1726 8.96189 38.2827 9.03268 38.2925C9.17427 38.31 9.33081 38.3578 9.46343 38.2593C9.51627 38.2203 10.0128 38.1853 10.0567 38.233C10.0617 38.2389 10.0637 38.2476 10.0657 38.2545C10.1235 38.4513 10.2302 38.6189 10.3788 38.7603C10.5104 38.883 10.626 39.0409 10.8504 38.9893C10.8992 38.9786 10.9531 38.9873 11.0049 38.9863C11.0328 38.9854 11.0568 38.9834 11.0707 38.9503C11.1286 38.8148 11.0169 38.3129 10.9042 38.2155C10.8534 38.1716 10.8623 37.9514 10.9192 37.9309C11.0149 37.8958 11.1136 37.8763 11.2103 37.8295C11.335 37.7691 11.4945 37.7964 11.6431 37.737C11.8525 37.6551 12.0947 37.7516 12.3291 37.6395C12.5036 37.5576 12.7379 37.619 12.9423 37.5401C13.0869 37.4846 13.2653 37.467 13.4119 37.4582C13.7429 37.4407 14.056 37.3237 14.3831 37.3257C14.6044 37.3267 14.7929 37.1707 15.0192 37.2195C15.0282 37.2214 15.0451 37.2126 15.0491 37.2049C15.107 37.0947 15.2485 37.0811 15.3263 37.0665C15.6224 37.0099 15.9315 37.0635 16.2317 36.9602C16.3822 36.9076 16.5627 36.894 16.7153 36.8823C16.9954 36.8608 17.2517 36.7478 17.5289 36.741C17.6406 36.738 17.7522 36.7361 17.8639 36.7312C17.8928 36.7302 17.9247 36.74 17.9487 36.7059C18.0165 36.6104 18.1411 36.6026 18.2328 36.5714C18.4482 36.4973 18.6885 36.6065 18.9188 36.4749C19.0544 36.3979 19.2558 36.4125 19.4214 36.3901C19.7863 36.3394 20.1512 36.2537 20.5251 36.2634C20.584 36.2654 20.6498 36.2615 20.7006 36.2381C20.927 36.1309 21.1703 36.0968 21.4135 36.0636C21.5192 36.049 21.6279 36.0578 21.7356 36.0539C21.7625 36.0539 21.8044 36.0558 21.8144 36.0402C21.9101 35.9009 22.1015 35.9058 22.2092 35.8941C22.5722 35.8561 22.9221 35.8005 23.2741 35.6962C23.4825 35.6339 23.6889 35.5861 23.8933 35.5003C24.0568 35.4311 24.2572 35.4633 24.4437 35.4009C24.5614 35.361 24.7309 35.3259 24.7967 35.2674C24.9263 35.1514 25.0838 35.17 25.2164 35.1222C25.368 35.0686 25.5146 34.9468 25.698 34.9838C25.707 34.9848 25.721 34.976 25.7289 34.9682C25.8207 34.8786 25.9383 34.8367 26.057 34.8016C26.1407 34.7772 26.1378 34.6759 26.2145 34.6505C26.1806 34.5755 26.1118 34.6164 26.059 34.6086ZM10.4027 33.2364C10.3518 33.2891 10.31 33.3816 10.2671 33.4508C10.1325 33.6672 10.1903 33.9488 10.0029 34.1418C9.9879 34.1554 9.98191 34.1857 9.9849 34.2071C10.0118 34.4264 9.91112 34.6262 9.85827 34.8269C9.81739 34.9809 9.73164 35.1446 9.60202 35.2713C9.45246 35.4185 9.31985 35.5822 9.17228 35.7313C9.05961 35.8444 8.91204 35.9311 8.8213 36.0578C8.74951 36.1572 8.59696 36.1133 8.55009 36.2508C8.54012 36.281 8.36463 36.317 8.27689 36.2059C8.15624 36.0529 8.06551 35.8755 7.90996 35.7498C7.90199 35.743 7.89401 35.7294 7.89501 35.7196C7.90398 35.5042 7.74943 35.3152 7.79629 35.0988C7.74843 34.785 7.93888 34.6008 8.14727 34.4069C8.26792 34.2958 8.39355 34.1818 8.49027 34.0395C8.57303 33.9186 8.71162 33.8358 8.80734 33.7218C8.93896 33.5629 9.14037 33.5015 9.29392 33.37C9.38865 33.2881 9.52525 33.2364 9.62296 33.1409C9.68877 33.0766 9.77153 33.0279 9.82836 32.9577C9.94203 32.8213 10.0966 32.8427 10.2441 32.8408C10.3199 32.8388 10.4495 32.7813 10.4635 32.8739C10.4805 32.9869 10.5164 33.1195 10.4027 33.2364Z" fill="#F7A728"/>
<path d="M0.0198717 19.7261C0.0198717 19.197 -0.0339711 18.66 0.0378193 18.1396C0.089668 17.7683 0.0467931 17.3901 0.136531 17.0344C0.179406 16.8668 0.148496 16.6748 0.232252 16.5452C0.318999 16.4107 0.246211 16.2557 0.318999 16.167C0.471553 15.9799 0.342929 15.749 0.478533 15.5501C0.569268 15.4176 0.586218 15.211 0.624108 15.0336C0.657012 14.8767 0.669974 14.7042 0.729799 14.5668C0.834494 14.3281 0.900302 14.0951 0.920243 13.8359C0.926226 13.7511 0.977077 13.6342 1.06382 13.564C1.13661 13.5055 1.12465 13.41 1.17051 13.335C1.23433 13.2307 1.30313 13.1137 1.32008 12.9734C1.33304 12.8691 1.41979 12.7697 1.46864 12.6684C1.51152 12.5816 1.57932 12.4959 1.59029 12.4004C1.60624 12.2659 1.64513 12.1606 1.76179 12.0778C1.82261 12.0339 1.84953 11.9316 1.86249 11.8751C1.89041 11.7542 1.96619 11.6607 2.01505 11.5603C2.10578 11.3722 2.22045 11.19 2.33312 11.0097C2.42086 10.8703 2.5445 10.7553 2.60931 10.5955C2.66615 10.4542 2.71401 10.2593 2.81172 10.1901C2.95431 10.0877 2.9922 9.9396 3.07296 9.8207C3.12481 9.74469 3.17666 9.63261 3.22153 9.53808C3.28335 9.40944 3.30728 9.23499 3.48376 9.1697C3.53062 9.15215 3.57948 9.08491 3.58845 9.03326C3.61538 8.86953 3.78488 8.81983 3.85468 8.69216C3.89755 8.61322 3.98031 8.56839 4.01521 8.46801C4.0511 8.36471 4.16078 8.28285 4.24554 8.19903C4.36818 8.07624 4.47786 7.91446 4.62942 7.85014C4.81288 7.77218 4.89065 7.60747 5.03623 7.51099C5.12297 7.45447 5.06415 7.3385 5.17981 7.28782C5.28351 7.24299 5.35629 7.12994 5.44204 7.04515C5.55771 6.93015 5.67137 6.81321 5.78504 6.69626C5.798 6.68359 5.80399 6.65045 5.81196 6.65045C6.06323 6.65338 6.13103 6.38635 6.34341 6.30838C6.47403 6.26063 6.58471 6.09301 6.70635 5.9897C6.79908 5.91076 6.90577 5.83377 7.00947 5.76555C7.1022 5.70416 7.19194 5.62911 7.24578 5.5531C7.32555 5.44297 7.46913 5.48683 7.53892 5.37865C7.62268 5.24904 7.81711 5.24221 7.89887 5.09798C7.90785 5.08239 7.94773 5.07849 7.97365 5.07654C8.07934 5.06972 8.19401 5.08628 8.18105 4.91866C8.17806 4.88455 8.25384 4.81633 8.29671 4.81341C8.42434 4.80464 8.49812 4.68379 8.62276 4.68087C8.65467 4.67989 8.67959 4.66625 8.6776 4.63311C8.66563 4.48303 8.77631 4.48595 8.87403 4.49278C8.95379 4.49862 8.97174 4.43917 9.01761 4.40409C9.1911 4.27058 9.40847 4.20918 9.59093 4.09321C9.72853 4.00647 9.89704 3.97723 10.0167 3.84469C10.0616 3.79499 10.1752 3.74334 10.262 3.72287C10.4963 3.66537 10.6947 3.52991 10.9151 3.45487C11.0427 3.41101 11.2002 3.38275 11.291 3.30771C11.3847 3.23072 11.5293 3.28237 11.5851 3.16152C11.5901 3.1508 11.611 3.14008 11.624 3.14106C11.8075 3.15178 11.955 3.01144 12.1435 3.03288C12.2851 3.04848 12.3918 2.96466 12.4895 2.87208C12.5423 2.82238 12.6161 2.82433 12.6819 2.8292C12.8564 2.84284 12.999 2.78534 13.1236 2.66645C13.1456 2.64501 13.1994 2.65378 13.2383 2.64988C13.5314 2.62259 13.8126 2.54853 14.0918 2.46276C14.1436 2.44717 14.2035 2.44425 14.2583 2.44912C14.4737 2.46666 14.6621 2.35459 14.8675 2.3195C15.0071 2.29514 15.1637 2.29514 15.2933 2.24154C15.7021 2.07002 16.1288 2.20256 16.5416 2.14311C16.758 2.11192 16.8278 2.27857 16.9445 2.38285C16.9774 2.41209 16.9315 2.43158 16.8966 2.43548C16.8178 2.44327 16.7371 2.46471 16.6593 2.45594C16.2814 2.41306 15.9085 2.50175 15.5565 2.58069C15.2763 2.64403 15.0061 2.61869 14.7349 2.65475C14.6611 2.6645 14.6083 2.73272 14.5893 2.75903C14.5315 2.83992 14.4587 2.80678 14.3959 2.83017C14.1456 2.92471 13.8674 2.89937 13.6192 3.00949C13.5514 3.0397 13.4616 3.02411 13.3829 3.03191C13.1944 3.0514 13.0119 3.11377 12.8335 3.15958C12.659 3.20441 12.4675 3.25021 12.302 3.33597C12.1196 3.43148 11.9281 3.48995 11.7327 3.55232C11.5751 3.60203 11.3997 3.65953 11.2611 3.78427C11.2062 3.833 11.1025 3.87588 11.0307 3.91681C10.8124 4.04155 10.5392 4.00062 10.3348 4.17507C10.269 4.23159 10.0845 4.25401 10.0366 4.31346C9.93194 4.44502 9.7405 4.33685 9.66571 4.48498C9.65973 4.49667 9.61985 4.4996 9.59791 4.4957C9.39251 4.46159 9.30577 4.62629 9.18811 4.73447C9.16518 4.75591 9.15122 4.77832 9.11732 4.78125C8.94482 4.79879 8.78429 4.89917 8.70951 5.01514C8.58387 5.21103 8.37847 5.25976 8.21894 5.38547C8.10627 5.47318 7.98761 5.55212 7.87394 5.63691C7.80315 5.68954 7.69945 5.6642 7.62966 5.75483C7.45118 5.98678 7.14906 6.07741 6.95662 6.31131C6.84495 6.44677 6.70735 6.58516 6.51092 6.65728C6.37931 6.70503 6.28758 6.86193 6.17989 6.97109C6.02933 7.12409 5.87777 7.27515 5.72023 7.42133C5.63847 7.49735 5.5607 7.50612 5.46897 7.52269C5.45401 7.52561 5.42709 7.52853 5.42609 7.53536C5.40116 7.67569 5.27752 7.74294 5.19875 7.84429C5.09904 7.97293 4.97441 8.07429 4.86573 8.19319C4.72813 8.34424 4.4988 8.45047 4.43399 8.62199C4.37217 8.78767 4.19269 8.85979 4.17674 9.03228C4.17175 9.09076 4.10894 9.08101 4.08102 9.12194C3.97832 9.2691 3.89356 9.41918 3.86864 9.59753C3.86664 9.60825 3.86465 9.62774 3.85867 9.62872C3.61139 9.68427 3.60939 9.96786 3.41895 10.0809C3.36311 10.114 3.37508 10.2164 3.30329 10.2758C3.26241 10.3099 3.2295 10.3411 3.17765 10.347C3.13777 10.3518 3.12481 10.3694 3.10487 10.4045C2.99319 10.5926 2.91841 10.807 2.72896 10.9444C2.718 10.9522 2.71002 10.9687 2.70902 10.9824C2.69706 11.0798 2.63125 11.187 2.62826 11.2514C2.62028 11.418 2.50761 11.535 2.48169 11.6889C2.45875 11.8244 2.35904 11.9521 2.27529 12.071C2.18455 12.1986 2.13071 12.3487 2.00508 12.4559C1.86449 12.5748 1.86947 12.7649 1.79569 12.9179C1.69199 13.1313 1.65111 13.3662 1.57433 13.5864C1.51551 13.755 1.44671 13.9246 1.37791 14.0883C1.29814 14.2783 1.25527 14.4781 1.1755 14.6623C1.07778 14.8855 1.01397 15.1058 0.967107 15.3435C0.943176 15.4654 0.955142 15.6271 0.882354 15.7178C0.806575 15.8123 0.861415 15.9575 0.731794 16.017C0.71584 16.0248 0.712849 16.0735 0.713846 16.1037C0.734785 16.4779 0.607157 16.8346 0.571262 17.203C0.550323 17.4164 0.530381 17.6386 0.491495 17.854C0.2841 18.9855 0.434661 20.1247 0.405745 21.2601C0.398766 21.5418 0.506451 21.8185 0.539355 22.1021C0.553315 22.2288 0.588213 22.3682 0.591204 22.4997C0.598184 22.8067 0.731794 23.0923 0.728802 23.4041C0.727805 23.4743 0.758715 23.6332 0.870389 23.7102C0.895316 23.7267 0.892325 23.7881 0.893322 23.83C0.89731 24.1029 0.994028 24.3524 1.07679 24.6077C1.11767 24.7344 1.21937 24.8416 1.19743 24.9975C1.17749 25.1428 1.24629 25.2665 1.37192 25.3718C1.42676 25.4176 1.47861 25.5462 1.47562 25.6047C1.46465 25.8025 1.55439 25.9682 1.61023 26.1397C1.66607 26.3142 1.79668 26.4652 1.8585 26.6377C1.90337 26.7644 2.01106 26.858 2.01106 27.0129C2.01106 27.1094 2.07288 27.2254 2.15763 27.3053C2.2025 27.3482 2.18655 27.3989 2.18854 27.4466C2.19552 27.6337 2.0659 27.7312 1.87745 27.6883C1.83657 27.6786 1.82361 27.663 1.80965 27.624C1.76677 27.5002 1.72091 27.3745 1.61322 27.2858C1.60724 27.2809 1.60026 27.2722 1.60126 27.2663C1.64612 27.0919 1.46366 26.9701 1.48958 26.7976C1.51052 26.6611 1.40882 26.5754 1.33204 26.4808C1.31609 26.4613 1.30612 26.435 1.30113 26.4097C1.25427 26.1904 1.13163 26.0043 1.02793 25.8094C1.01896 25.7928 1.00998 25.7743 1.00699 25.7558C0.98306 25.595 0.9352 25.4439 0.814552 25.324C0.812558 25.3221 0.811561 25.3162 0.812558 25.3123C0.857427 25.134 0.718831 24.9995 0.689916 24.8338C0.655018 24.6311 0.628096 24.4177 0.568271 24.2276C0.495483 24.0006 0.426684 23.7784 0.370847 23.5455C0.331961 23.3856 0.366859 23.2014 0.288089 23.0757C0.160461 22.873 0.287092 22.643 0.192368 22.4764C0.0398135 22.2074 0.148496 21.9296 0.0826883 21.6636C-0.0738547 21.0233 0.0467931 20.3703 0.0198717 19.7261Z" fill="#F7A728"/>
<path d="M30.143 33.8231C30.0632 33.8231 30.0253 33.8289 29.9914 33.8221C29.7013 33.7666 29.446 33.942 29.1648 33.94C29.1538 33.94 29.1349 33.9459 29.1339 33.9517C29.0791 34.1973 28.8727 34.0989 28.7281 34.1116C28.5057 34.1301 28.3163 34.2285 28.1119 34.2919C28.0002 34.326 27.9115 34.4147 27.7838 34.4137C27.6323 34.4127 27.5455 34.3338 27.5216 34.2071C27.4847 34.0141 27.5176 33.8484 27.6871 33.6945C27.7569 33.6311 27.8028 33.5463 27.9045 33.4917C28.0261 33.4255 28.1737 33.3787 28.2824 33.368C28.4788 33.3485 28.5735 33.2237 28.6962 33.1273C28.7381 33.0951 28.768 32.982 28.6523 32.9411C28.4678 32.8748 28.2724 32.8271 28.1059 32.7306C27.9892 32.6634 27.8945 32.5532 27.8058 32.4314C27.7121 32.3028 27.8008 32.1235 27.6413 32.0416C27.6253 32.0338 27.6303 31.9831 27.6293 31.9529C27.6273 31.7697 27.6472 31.5836 27.6193 31.4042C27.5775 31.1392 27.7021 30.9033 27.742 30.6558C27.7729 30.4618 27.8497 30.2562 27.9314 30.071C27.9813 29.958 28.069 29.8225 28.1637 29.7397C28.2425 29.6705 28.1578 29.535 28.2924 29.5253C28.2634 29.346 28.4609 29.3226 28.5307 29.2056C28.5935 29.1004 28.6234 28.9795 28.7062 28.883C28.8228 28.7456 29.1798 28.7135 29.3293 28.8314C29.3543 28.8509 29.3961 28.8499 29.43 28.8587C29.456 28.8655 29.5038 28.8713 29.5048 28.8791C29.5138 29.0292 29.6584 29.1355 29.6245 29.3089C29.6045 29.4122 29.5337 29.496 29.4839 29.5155C29.2964 29.5886 29.1828 29.7007 29.098 29.882C29.0392 30.0096 28.9175 30.1217 28.7979 30.2065C28.6902 30.2825 28.7082 30.4024 28.6394 30.4901C28.5616 30.5895 28.5516 30.7464 28.4968 30.8478C28.2495 31.3087 28.3332 31.7931 28.3283 32.2726C28.3273 32.3622 28.5366 32.5581 28.6214 32.5532C28.745 32.5474 28.8108 32.4714 28.8188 32.3593C28.8298 32.2082 28.8218 32.0552 28.8288 31.9032C28.8308 31.8633 28.8039 31.7989 28.8747 31.7882C28.9564 31.7765 29.0671 31.7395 29.112 31.8009C29.1499 31.8525 29.2246 31.8642 29.2406 31.9363C29.2516 31.986 29.3084 31.9597 29.3453 31.9627C29.3882 31.9656 29.4001 31.9363 29.4011 31.9032C29.4081 31.7161 29.5766 31.5689 29.5357 31.3701C29.5198 31.2941 29.6145 31.2415 29.6374 31.2278C29.7361 31.1713 29.7052 31.0904 29.7152 31.0164C29.7471 30.7922 29.8398 30.5827 29.8468 30.3478C29.8498 30.2474 29.9196 30.033 30.142 30.1276C30.2157 30.1587 30.2935 30.2114 30.2995 30.2981C30.3095 30.4375 30.3603 30.6256 30.2895 30.7084C30.1549 30.8682 30.2786 31.068 30.138 31.2259C30.0851 31.2853 30.0323 31.4208 30.0024 31.5358C29.9615 31.6927 29.9166 31.8672 29.7581 31.9792C29.6933 32.025 29.6963 32.1322 29.6235 32.1995C29.5128 32.3028 29.5058 32.484 29.3483 32.5649C29.2835 32.5981 29.2835 33.0717 29.3423 33.1185C29.3672 33.138 29.4101 33.139 29.445 33.139C29.5766 33.1409 29.7102 33.1536 29.8389 33.1351C30.1579 33.0902 30.4491 33.2452 30.7651 33.2491C30.8619 33.2501 30.9995 33.3787 31.1091 33.4684C31.2358 33.5717 31.3285 33.7023 31.3823 33.8338C31.4232 33.9322 31.501 34.0278 31.501 34.1447C31.501 34.3474 31.494 34.5501 31.504 34.7528C31.511 34.9019 31.4531 35.0101 31.3395 35.1017C31.3195 35.1173 31.3175 35.1563 31.3086 35.1846C31.3006 35.2099 31.3046 35.2518 31.2896 35.2596C31.0314 35.3902 30.9247 35.6738 30.6963 35.8248C30.5847 35.8989 30.47 35.9623 30.3733 36.0568C30.2995 36.1289 30.1918 36.1776 30.144 36.2614C30.0732 36.3862 29.9366 36.3716 29.8389 36.4349C29.6544 36.5548 29.4759 36.6873 29.2885 36.7945C29.1369 36.8813 29.0172 37.0333 28.8109 37.0557C28.7241 37.0655 28.6005 37.121 28.5097 37.197C28.4449 37.2516 28.3303 37.3111 28.2744 37.3081C28.0939 37.3013 27.9613 37.4075 27.8058 37.4494C27.5096 37.5284 27.2175 37.5956 26.9084 37.621C26.6212 37.6444 26.371 37.5713 26.1446 37.428C26.0639 37.3773 26.005 37.2652 25.9203 37.2009C25.7877 37.1005 25.7089 36.9544 25.5853 36.8472C25.5683 36.8325 25.5454 36.8208 25.5364 36.8023C25.4706 36.6678 25.5105 36.2595 25.6242 36.1806C25.7787 36.0734 25.8844 35.9204 26.0748 35.8346C26.2274 35.7654 26.4009 35.6884 26.5514 35.5871C26.6262 35.5373 26.8187 35.5003 26.8605 35.4555C26.9762 35.3298 27.1487 35.4379 27.2594 35.3044C27.3152 35.2372 27.4867 35.2791 27.6044 35.2957C27.6143 35.2966 27.6253 35.3268 27.6253 35.3434C27.6243 35.3726 27.5974 35.3795 27.5725 35.3775C27.4448 35.3668 27.379 35.4506 27.3112 35.5344C27.3023 35.5451 27.2853 35.5607 27.2763 35.5588C27.1098 35.5218 26.9922 35.6523 26.8426 35.6816C26.6811 35.7137 26.5435 35.8073 26.4278 35.933C26.352 36.0149 26.2154 36.0597 26.1726 36.1513C26.1147 36.2741 25.9602 36.3238 25.9392 36.4398C25.8874 36.7244 26.0738 36.8783 26.3959 36.8481C26.4946 36.8384 26.5943 36.8325 26.693 36.8296C26.9224 36.8228 27.1527 36.7653 27.3631 36.7097C27.5236 36.6678 27.6931 36.6922 27.8337 36.6279C27.9264 36.585 28.0451 36.5782 28.1149 36.4866C28.1239 36.4749 28.1408 36.4593 28.1508 36.4612C28.3392 36.4983 28.4808 36.3638 28.6453 36.3189C28.8118 36.2741 28.9953 36.2137 29.1329 36.0743C29.2217 35.9847 29.3672 35.9525 29.4669 35.8697C29.6434 35.7225 29.8977 35.703 30.0492 35.5062C30.0871 35.4565 30.2068 35.4068 30.2836 35.3941C30.4481 35.3668 30.5149 35.2362 30.6086 35.1436C30.6934 35.0598 30.7741 34.9672 30.8659 34.8922C31.0005 34.783 31.1799 34.3006 31.0922 34.1564C31.0373 34.0658 30.9396 33.9781 30.8399 33.9371C30.6046 33.8465 30.3603 33.7666 30.143 33.8231Z" fill="#F7A728"/>
<path d="M26.4297 31.9082C26.4297 31.6548 26.4317 31.4014 26.4277 31.148C26.4267 31.0954 26.4626 31.0106 26.3818 30.9999C26.307 30.9902 26.2562 31.0837 26.2482 31.1305C26.2133 31.3546 26.0897 31.5564 26.0996 31.7951C26.1026 31.8682 26.0428 31.993 25.958 32.0641C25.9471 32.0729 25.9311 32.0904 25.9331 32.0992C25.978 32.2629 25.8444 32.3828 25.8185 32.5309C25.7985 32.6469 25.7267 32.76 25.6649 32.8701C25.6081 32.9714 25.613 33.0942 25.5492 33.2053C25.4964 33.2989 25.4705 33.4207 25.3568 33.4324C25.1664 33.4529 24.957 33.487 24.8244 33.2833C24.7655 33.1927 24.6289 33.2268 24.5222 33.3535C24.3816 33.5221 24.2889 33.7218 24.1364 33.8836C23.9918 34.0366 23.578 34.0707 23.4354 33.8583C23.3536 33.7365 23.3088 33.5981 23.225 33.487C23.1263 33.3554 23.1163 33.1644 22.9409 33.0825C22.906 33.066 22.8681 33.0367 22.8571 33.0786C22.8112 33.2541 22.6916 33.3944 22.6337 33.562C22.6248 33.5893 22.6328 33.6332 22.5849 33.6254C22.542 33.6185 22.557 33.5766 22.551 33.5484C22.5181 33.3866 22.6627 33.2804 22.6846 33.1361C22.6866 33.1205 22.7075 33.1079 22.7155 33.0913C22.8581 32.7989 22.8372 32.4832 22.8471 32.1723C22.8531 31.9832 22.9538 31.8156 22.9698 31.6226C22.9767 31.533 23.1263 31.3849 23.3018 31.3917C23.3736 31.3946 23.4454 31.3858 23.5172 31.3897C23.6149 31.3956 23.7714 31.3507 23.7983 31.418C23.8562 31.5622 23.9738 31.6899 23.9479 31.8702C23.8961 32.2386 23.9449 32.6099 23.9649 32.9773C23.9718 33.1069 24.0207 33.2531 24.0526 33.3915C24.0716 33.4743 24.1733 33.4344 24.2391 33.4431C24.2779 33.448 24.3248 33.449 24.3248 33.3905C24.3248 33.2775 24.3587 33.1858 24.4405 33.0972C24.5771 32.949 24.5631 32.7512 24.5222 32.5826C24.4205 32.1606 24.4405 31.7357 24.4345 31.3098C24.4335 31.2406 24.4126 31.1714 24.4136 31.1022C24.4155 30.9794 24.4983 30.92 24.611 30.8917C24.615 30.8908 24.619 30.8907 24.6229 30.8907C24.8413 30.8976 25.1035 30.804 25.2651 30.9307C25.4336 31.0632 25.3129 31.3264 25.3279 31.531C25.3428 31.7367 25.3319 31.9443 25.3319 32.1509C25.3319 32.2103 25.3359 32.2542 25.4196 32.2542C25.5014 32.2542 25.5084 32.2152 25.5253 32.1509C25.5762 31.9589 25.642 31.7708 25.6998 31.5807C25.7108 31.5437 25.7158 31.5047 25.7177 31.4667C25.7297 31.2523 25.7975 31.0642 25.9142 30.8752C25.97 30.7845 26.0757 30.6705 26.0338 30.5311C26.0099 30.4512 26.0817 30.423 26.1226 30.3772C26.2612 30.2232 26.2861 29.9951 26.4366 29.8606C26.5683 29.7437 26.6211 29.5858 26.7298 29.462C26.7437 29.4455 26.7806 29.4435 26.8066 29.4426C26.9262 29.4387 27.0489 29.4542 27.1645 29.4309C27.334 29.3967 27.4497 29.5166 27.5943 29.5468C27.6072 29.5498 27.6212 29.5839 27.6212 29.6034C27.6212 29.7749 27.6631 29.963 27.6052 30.113C27.5324 30.3011 27.5644 30.4883 27.5235 30.6685C27.4856 30.8323 27.4706 31.0194 27.3958 31.1539C27.3061 31.3157 27.329 31.4657 27.3251 31.6168C27.3131 32.1031 27.3171 32.5904 27.326 33.0777C27.329 33.2122 27.2493 33.2813 27.1526 33.3155C27.0319 33.3583 26.5922 33.1147 26.5374 33.0065C26.4366 32.8067 26.4117 32.5953 26.4197 32.377C26.4247 32.221 26.4207 32.0651 26.4207 31.9092C26.4247 31.9082 26.4277 31.9082 26.4297 31.9082Z" fill="#F7A728"/>
<path d="M36.1962 19.7564C36.1962 20.3996 36.2481 21.0477 36.1773 21.684C36.1344 22.068 36.1434 22.4559 36.0726 22.8321C36.0517 22.9461 36.0008 23.0923 35.927 23.2083C35.9151 23.2268 35.9071 23.2511 35.9081 23.2726C35.927 23.525 35.8373 23.7628 35.7775 23.9986C35.7416 24.139 35.6957 24.2754 35.6808 24.4216C35.6758 24.4732 35.612 24.5385 35.587 24.5551C35.4654 24.637 35.5232 24.75 35.5063 24.8484C35.4734 25.0307 35.4155 25.2051 35.3278 25.3698C35.3178 25.3893 35.3148 25.4137 35.3128 25.4361C35.2989 25.63 35.2311 25.8035 35.1284 25.9692C35.0925 26.0277 35.0915 26.1125 35.0925 26.1846C35.0945 26.3571 34.9878 26.4818 34.925 26.627C34.8831 26.7225 34.8233 26.8161 34.7854 26.9174C34.7365 27.051 34.6807 27.1981 34.56 27.2965C34.5361 27.316 34.5172 27.3326 34.5191 27.3589C34.5331 27.5051 34.3776 27.5948 34.3905 27.7409C34.3945 27.7858 34.3377 27.7712 34.3237 27.7936C34.2509 27.9047 34.1682 28.0128 34.1183 28.1337C34.0605 28.2711 33.9578 28.3676 33.8591 28.4689C33.8322 28.4962 33.8092 28.5148 33.8132 28.5498C33.8371 28.7477 33.6736 28.8393 33.5709 28.965C33.5639 28.9728 33.541 28.9747 33.541 28.9796C33.544 29.1609 33.4383 29.2827 33.3077 29.3889C33.185 29.4883 33.2369 29.6413 33.187 29.7563C33.1432 29.8567 33.0155 29.9191 32.9467 30.0126C32.861 30.1296 32.7034 30.2027 32.7034 30.3723C32.7034 30.4424 32.6327 30.4278 32.6037 30.4707C32.4412 30.7114 32.2827 30.9599 32.0862 31.1743C31.8978 31.3809 31.7064 31.5914 31.5289 31.8029C31.3494 32.0154 31.0882 32.1313 30.9406 32.3594C30.8548 32.4929 30.6764 32.4939 30.5906 32.6352C30.5607 32.6849 30.3693 32.7005 30.3234 32.6235C30.2835 32.5582 30.2347 32.4257 30.3922 32.3428C30.5178 32.2766 30.6046 32.1391 30.7103 32.0339C30.8578 31.8867 31.0184 31.7493 31.15 31.5905C31.2427 31.4784 31.3743 31.4072 31.4262 31.2425C31.4681 31.109 31.6146 30.996 31.7353 30.8995C31.818 30.8332 31.828 30.7367 31.9038 30.6646C32.0713 30.5058 32.2298 30.3235 32.3405 30.1238C32.4253 29.9707 32.5748 29.8674 32.6297 29.6862C32.6636 29.5741 32.8002 29.4835 32.868 29.3626C32.9098 29.2876 33.0046 29.232 33.0056 29.1414C33.0076 29.0576 33.0843 29.0576 33.1152 29.0079C33.2329 28.8198 33.3705 28.6434 33.4832 28.4524C33.527 28.3773 33.557 28.2906 33.5958 28.2107C33.6507 28.0996 33.6916 27.9817 33.8411 27.9602C33.9089 27.9505 33.883 27.894 33.888 27.8569C33.9019 27.7497 33.899 27.6552 33.9937 27.5577C34.0974 27.4515 34.1333 27.2771 34.216 27.1562C34.2769 27.0666 34.2459 26.9321 34.3656 26.8794C34.3796 26.8726 34.3915 26.8375 34.3875 26.819C34.3447 26.6183 34.4414 26.4243 34.5221 26.2762C34.6179 26.0998 34.6647 25.9029 34.7754 25.7353C34.7874 25.7168 34.7874 25.6914 34.7914 25.6681C34.8183 25.5092 34.905 25.3806 34.9818 25.2422C35.0346 25.1467 35.0067 25.0063 35.0057 24.8865C35.0047 24.8134 35.0197 24.7676 35.1034 24.7627C35.1353 24.7607 35.1762 24.7637 35.1822 24.711C35.2051 24.5005 35.2719 24.2959 35.3218 24.0932C35.3737 23.8827 35.3477 23.6556 35.4305 23.4724C35.4923 23.335 35.4514 23.1868 35.5172 23.0816C35.6758 22.8282 35.5232 22.5446 35.6209 22.3078C35.7007 22.1138 35.6349 21.9062 35.7196 21.7425C35.8642 21.4618 35.7974 21.1734 35.8074 20.8937C35.8343 20.154 35.8184 19.4133 35.8164 18.6727C35.8164 18.5216 35.8463 18.3501 35.7854 18.2224C35.6678 17.9758 35.7735 17.703 35.6798 17.4827C35.5531 17.1864 35.6847 16.8834 35.589 16.6105C35.4893 16.324 35.5352 16.0335 35.4773 15.7519C35.4634 15.6866 35.4115 15.6018 35.3667 15.5472C35.2789 15.4391 35.2969 15.3211 35.2879 15.21C35.269 14.982 35.1563 14.8027 35.0257 14.6263C35.0077 14.6019 34.9987 14.5581 35.0067 14.5288C35.0566 14.3524 34.9529 14.1965 34.8851 14.0678C34.7904 13.8885 34.7315 13.6936 34.6368 13.5133C34.5501 13.3476 34.5321 13.1079 34.6956 12.9286C34.7684 12.8496 34.8213 12.8321 34.906 12.9422C35.0356 13.1118 35.0955 13.2882 35.0985 13.4958C35.0995 13.5757 35.1882 13.6225 35.2231 13.7004C35.2989 13.8671 35.3029 14.0601 35.4056 14.2101C35.611 14.5113 35.5651 14.8533 35.6229 15.1808C35.6518 15.3474 35.6658 15.5414 35.7745 15.6993C35.8044 15.7421 35.7845 15.8143 35.8024 15.8679C35.8832 16.1057 35.8552 16.3659 35.93 16.5949C36.0068 16.8268 35.94 17.0792 36.0347 17.2722C36.1005 17.4067 36.0208 17.585 36.1793 17.6796C36.1972 17.6903 36.1903 17.7458 36.1903 17.78C36.1913 18.4388 36.1903 19.0976 36.1903 19.7564C36.1933 19.7564 36.1943 19.7564 36.1962 19.7564Z" fill="#F7A728"/>
<path d="M19.9537 32.5417C19.9537 32.2376 19.9198 31.9297 19.9627 31.6305C20.0125 31.2787 19.9976 30.9161 20.0723 30.5779C20.1212 30.3548 20.0823 30.1248 20.1631 29.9162C20.2867 29.5966 20.204 29.2594 20.2708 28.9407C20.3136 28.7321 20.3087 28.5002 20.4463 28.3121C20.4702 28.2799 20.4921 28.2741 20.523 28.2741C20.6267 28.2721 20.7304 28.2653 20.8341 28.2721C21.0186 28.2838 21.1452 28.4173 21.1462 28.5967C21.1472 28.8812 21.206 29.1833 21.1263 29.4455C21.0056 29.8431 21.1153 30.2476 21.0186 30.6315C20.9129 31.0506 20.9927 31.4784 20.9139 31.8897C20.8072 32.4491 20.866 33.0056 20.869 33.5621C20.87 33.7501 20.9388 33.9558 21.0026 34.1507C21.0525 34.3037 21.1741 34.4431 21.1432 34.6214C21.1352 34.6682 21.1332 34.6955 21.0724 34.7042C20.865 34.7344 20.7105 34.6311 20.533 34.5503C20.3426 34.4625 20.3106 34.3066 20.2369 34.1595C20.1471 33.9801 19.9836 33.9772 19.86 34.1536C19.7034 34.3778 19.4791 34.4801 19.2218 34.3943C19.1131 34.3583 18.9825 34.3203 18.8838 34.2228C18.7771 34.1176 18.7333 34.0074 18.7452 33.8681C18.7552 33.7433 18.6415 33.6712 18.6036 33.563C18.5757 33.4831 18.5388 33.4022 18.5388 33.3194C18.5408 32.7824 18.5428 32.2444 18.5608 31.7075C18.5647 31.5808 18.6495 31.4619 18.6565 31.3293C18.6565 31.3215 18.6595 31.3128 18.6645 31.3079C18.7063 31.2631 19.2049 31.3137 19.2557 31.342C19.5229 31.4921 19.4452 31.7386 19.4472 31.9618C19.4512 32.4062 19.4422 32.8506 19.4571 33.294C19.4611 33.4178 19.5229 33.5426 19.6157 33.641C19.6237 33.6488 19.6326 33.6595 19.6346 33.6693C19.6516 33.7618 19.6825 33.8651 19.8001 33.8125C19.8859 33.7735 19.9577 33.6965 19.9537 33.5698C19.9427 33.2268 19.9497 32.8838 19.9497 32.5407C19.9507 32.5417 19.9527 32.5417 19.9537 32.5417Z" fill="#F7A728"/>
<path d="M15.4149 32.1605C15.367 32.1585 15.364 32.1966 15.358 32.2336C15.3511 32.2774 15.378 32.3349 15.3291 32.3632C15.2294 32.4226 15.2205 32.5396 15.1816 32.6224C15.1128 32.7696 15.1706 32.945 15.0878 33.1175C15.026 33.2452 15.035 33.4216 14.9542 33.5639C14.9413 33.5882 14.9532 33.635 14.9044 33.6253C14.8625 33.6175 14.8735 33.5765 14.8735 33.5473C14.8715 33.3407 14.8715 33.1341 14.8705 32.9275C14.8695 32.8739 14.8715 32.8134 14.8276 32.7754C14.6641 32.6332 14.4816 32.5357 14.2493 32.5581C14.1516 32.5679 14.0509 32.5532 13.9512 32.5523C13.8953 32.5513 13.8814 32.525 13.8764 32.4724C13.8594 32.3164 13.8604 32.1673 13.7876 32.0065C13.7009 31.8126 13.5493 31.756 13.3958 31.7024C13.1605 31.6186 12.9281 31.7414 12.7108 31.8097C12.649 31.8291 12.5273 31.8594 12.4515 31.95C12.3937 32.0202 12.3119 32.0932 12.2372 32.1624C12.1036 32.2852 11.9989 32.4314 11.9729 32.601C11.944 32.7998 11.8234 32.9606 11.7366 33.1185C11.6389 33.2939 11.7366 33.4937 11.59 33.6535C11.5352 33.7139 11.5811 33.864 11.5811 33.9722C11.5721 34.3279 11.593 34.3201 11.7556 34.7255C11.8662 35.0023 12.0786 35.1466 12.3189 35.2723C12.3817 35.3044 12.3738 35.4029 12.4844 35.3892C12.8364 35.3454 13.2043 35.4818 13.5463 35.2927C13.6271 35.2489 13.7019 35.2002 13.7677 35.1427C13.8465 35.0725 13.9023 34.977 13.9841 34.9117C14.0249 34.8785 14.1266 34.863 14.1456 34.9331C14.1675 35.0169 14.2044 35.0813 14.2463 35.1553C14.338 35.3161 14.4417 35.4175 14.6411 35.3902C14.688 35.3834 14.7369 35.3882 14.7847 35.3873C14.8166 35.3863 14.8495 35.3843 14.8555 35.3415C14.8745 35.1963 14.9004 35.0549 14.9423 34.9117C14.9871 34.7587 14.9682 34.5881 14.9782 34.4254C14.9812 34.3922 14.9772 34.3445 14.9971 34.3269C15.1098 34.2295 15.0669 34.0755 15.1536 33.9595C15.2244 33.865 15.1955 33.712 15.2294 33.5834C15.2833 33.3787 15.3012 33.1565 15.3471 32.9431C15.371 32.83 15.3092 32.6624 15.371 32.6029C15.4917 32.4889 15.4239 32.3593 15.4687 32.2453C15.4837 32.2073 15.4687 32.1624 15.4149 32.1605ZM13.7238 34.8123C13.4985 34.9604 13.2731 34.8873 13.0488 34.8863C12.9192 34.8863 12.8394 34.747 12.7826 34.6476C12.7158 34.5316 12.6519 34.4098 12.5931 34.288C12.5383 34.173 12.5483 34.0414 12.5672 33.9196C12.5832 33.8163 12.5413 33.6984 12.642 33.6058C12.6908 33.56 12.5812 33.5424 12.5861 33.4976C12.5961 33.404 12.5363 33.2978 12.638 33.2169C12.6599 33.1984 12.6649 33.1516 12.6659 33.1175C12.6689 32.9304 12.7407 32.7715 12.8564 32.6254C12.8942 32.5786 12.8773 32.5162 12.9351 32.4538C13.0817 32.296 13.2442 32.3856 13.3998 32.3729C13.4596 32.3681 13.4586 32.4129 13.4576 32.4529C13.4566 32.6205 13.4546 32.7881 13.4516 32.9557C13.4506 32.9782 13.4466 33.0181 13.4377 33.0201C13.2193 33.0659 13.2173 33.2569 13.1595 33.4099C13.1525 33.4274 13.1266 33.4401 13.1076 33.4508C13.0468 33.483 13.0508 33.5424 13.0558 33.5921C13.0637 33.6535 13.1226 33.634 13.1635 33.634C13.3918 33.635 13.5802 33.4908 13.6819 33.2832C13.7268 33.1926 13.8165 33.1146 13.9043 33.0561C13.9621 33.0181 13.9631 33.0951 13.9631 33.1341C13.9641 33.3758 13.9631 33.6175 13.9631 33.8592H13.9661C13.9661 34.0531 13.9561 34.249 13.9691 34.4429C13.9821 34.6349 13.8764 34.7119 13.7238 34.8123Z" fill="#F7A728"/>
<path d="M15.771 33.9176C15.771 33.6838 15.7092 33.4294 15.784 33.2208C15.9295 32.8144 15.8179 32.41 15.8627 32.0085C15.8747 31.9052 15.8807 31.8116 15.763 31.7249C15.6015 31.607 15.6504 31.5124 15.8009 31.377C15.9634 31.2298 16.1409 31.2844 16.3015 31.3097C16.3663 31.3204 16.4889 31.3682 16.5537 31.4764C16.8648 31.989 16.7073 32.5523 16.7611 33.0922C16.7661 33.1399 16.7372 33.2023 16.793 33.2306C16.8568 33.2627 16.8708 33.1848 16.9087 33.1653C17.1051 33.0649 17.133 32.8924 17.15 32.7033C17.161 32.5737 17.2497 32.4704 17.3165 32.3603C17.3394 32.3213 17.3474 32.2745 17.3673 32.2336C17.4102 32.1459 17.4521 32.0611 17.5787 32.067C17.7213 32.0738 17.8659 32.0621 18.0085 32.0689C18.176 32.0767 18.3435 32.257 18.3445 32.4188C18.3445 32.5786 18.3894 32.7569 18.3325 32.8944C18.165 33.2998 18.2936 33.711 18.2617 34.1165C18.2538 34.2217 18.3565 34.3094 18.3525 34.4361C18.3485 34.5579 18.2986 34.6554 18.2169 34.6944C18.1241 34.7382 17.9696 34.7402 17.8978 34.671C17.818 34.595 17.7064 34.6164 17.6276 34.518C17.5608 34.4351 17.489 34.2997 17.489 34.2607C17.489 34.0599 17.3604 33.8923 17.3654 33.6954C17.3664 33.6389 17.3614 33.5668 17.3265 33.5307C17.2956 33.4976 17.2607 33.407 17.2068 33.445C17.152 33.4849 17.0782 33.5327 17.0672 33.6116C17.0563 33.6925 17.0513 33.7754 17.0553 33.8562C17.0612 33.98 16.9725 34.0473 16.9027 34.1272C16.8907 34.1408 16.8688 34.1564 16.8698 34.1691C16.8907 34.3221 16.7661 34.4322 16.7531 34.5803C16.7392 34.747 16.5268 34.8961 16.3533 34.8961C16.2735 34.8961 16.1938 34.8951 16.114 34.8932C15.9495 34.8903 15.761 34.709 15.759 34.5482C15.7571 34.3377 15.758 34.1272 15.758 33.9176C15.762 33.9176 15.767 33.9176 15.771 33.9176Z" fill="#F7A728"/>
<path d="M31.501 10.9258C31.4332 10.9258 31.3584 10.9073 31.2996 10.9287C31.0693 11.0154 30.804 10.9628 30.5877 11.1022C30.5757 11.11 30.5567 11.1061 30.5408 11.108C30.3105 11.1256 30.0911 11.1772 29.8867 11.2883C29.8578 11.3039 29.8149 11.3049 29.781 11.299C29.6314 11.2747 29.5258 11.3945 29.3902 11.4082C29.3423 11.4131 29.2625 11.4394 29.2456 11.3712C29.2276 11.299 29.2167 11.2172 29.2555 11.1441C29.3263 11.0106 29.4061 10.88 29.4121 10.7231C29.4181 10.5671 29.3941 10.4054 29.429 10.2572C29.5327 9.8255 29.4639 9.38013 29.5457 8.95619C29.5846 8.75349 29.5686 8.54688 29.6295 8.35392C29.6454 8.30226 29.6863 8.16972 29.8189 8.27692C29.9306 8.36658 30.0113 8.46014 30.0273 8.60145C30.0293 8.62289 30.0363 8.65505 30.0512 8.66188C30.2656 8.76421 30.3494 8.98738 30.5139 9.13454C30.5966 9.20861 30.6943 9.27 30.7432 9.36843C30.812 9.5078 30.9596 9.57212 31.0473 9.70173C31.14 9.83817 31.2457 10.0058 31.4312 10.0662C31.5379 10.1013 31.51 10.2221 31.6017 10.2845C31.7243 10.3683 31.7852 10.5282 31.8928 10.6432C31.9457 10.6997 31.9267 10.8001 31.8998 10.879C31.8789 10.9414 31.8181 10.9112 31.7752 10.9141C31.6845 10.9199 31.5917 10.916 31.5 10.916C31.501 10.919 31.501 10.9219 31.501 10.9258Z" fill="#168ECE"/>
<path d="M21.1531 32.8798C21.1531 32.6391 21.1292 32.4666 21.1601 32.3048C21.191 32.144 21.2189 31.9764 21.2678 31.8253C21.3276 31.6362 21.3994 31.4452 21.4722 31.2581C21.5111 31.1597 21.6118 31.0827 21.6906 31.0018C21.7633 30.9258 21.8511 30.8644 21.8431 30.7406C21.8361 30.6208 21.9259 30.5603 22.0236 30.5204C22.1153 30.4824 22.1841 30.42 22.2539 30.3557C22.2619 30.3479 22.2669 30.3294 22.2738 30.3294C22.3985 30.3225 22.5122 30.2475 22.6198 30.2339C22.918 30.1958 23.2241 30.2105 23.5272 30.2163C23.6668 30.2192 23.7615 30.3411 23.8104 30.4356C23.9081 30.6227 23.9669 30.8322 23.93 31.0515C23.9151 31.1382 23.8742 31.1957 23.7755 31.1879C23.6877 31.1802 23.6279 31.146 23.6389 31.0427C23.6458 30.9774 23.6379 30.9102 23.6369 30.8439C23.6329 30.6091 23.3976 30.4249 23.1842 30.5282C23.1024 30.5681 22.9339 30.572 22.917 30.7543C22.91 30.8274 22.7425 30.8907 22.6797 30.9872C22.571 31.1519 22.4633 31.3098 22.4075 31.5125C22.3756 31.6265 22.4045 31.8039 22.2559 31.8857C22.2479 31.8896 22.2439 31.9062 22.2439 31.9169C22.2409 32.1625 22.1153 32.3876 22.1233 32.6342C22.1293 32.8281 22.0385 33.0065 22.0445 33.2063C22.0505 33.3973 22.1113 33.5678 22.1532 33.7471C22.1572 33.7657 22.1612 33.7939 22.1731 33.7988C22.225 33.8173 22.2878 33.8436 22.2479 33.9002C22.213 33.9499 22.1602 33.9996 22.0874 34.0152C21.8082 34.0765 21.5609 33.9908 21.3785 33.7988C21.3166 33.7345 21.2837 33.5863 21.2279 33.5055C21.0684 33.2755 21.2 33.0338 21.1531 32.8798Z" fill="#F7A728"/>
<path d="M33.5461 10.8264C33.2778 10.8303 33.224 10.7845 33.1981 10.5214C33.1851 10.3937 33.0635 10.3411 32.9897 10.2729C32.9029 10.192 32.9039 10.0789 32.8232 10.001C32.7863 9.96587 32.7334 9.95515 32.7035 9.90642C32.5968 9.73782 32.4443 9.59066 32.3495 9.42693C32.2299 9.2213 32.0634 9.06537 31.9088 8.90554C31.7433 8.73499 31.6366 8.52254 31.4432 8.36759C31.3036 8.25551 31.1879 8.09861 31.0493 7.97289C31.0444 7.96801 31.0414 7.95924 31.0414 7.95242C31.0204 7.68247 30.7921 7.57039 30.6196 7.41154C30.5658 7.36184 30.5219 7.32383 30.4511 7.31311C30.4421 7.31214 30.4272 7.27218 30.4321 7.26633C30.478 7.21955 30.5209 7.15815 30.5787 7.13671C30.7482 7.07532 30.8898 7.14256 31.0105 7.25951C31.1341 7.38035 31.2537 7.5051 31.3804 7.62205C31.4083 7.64836 31.4083 7.67467 31.4143 7.70391C31.4203 7.73022 31.4233 7.7809 31.4272 7.7809C31.6326 7.78577 31.6406 7.99043 31.7553 8.08789C31.8789 8.19411 31.9796 8.32665 32.1033 8.43288C32.2887 8.59173 32.4064 8.80419 32.5779 8.97571C32.7135 9.11118 32.8022 9.29244 32.9039 9.45909C32.9518 9.53706 33.0076 9.6043 33.0734 9.66765C33.1353 9.7271 33.1053 9.83333 33.2031 9.88693C33.3167 9.94832 33.2928 10.1315 33.4593 10.1744C33.5161 10.189 33.551 10.3206 33.571 10.3908C33.6019 10.4999 33.6986 10.5633 33.7166 10.6851C33.7355 10.8274 33.7664 10.8225 33.5461 10.8264Z" fill="#F7A728"/>
<path d="M6.68948 33.2589C6.66555 33.3008 6.74831 33.4197 6.62367 33.4168C6.50602 33.4139 6.36942 33.5064 6.26672 33.3057C6.21287 33.1995 6.11915 33.0903 6.04935 32.9734C5.96061 32.8252 5.80407 32.7131 5.67046 32.5933C5.60465 32.5348 5.50993 32.5358 5.42816 32.4773C5.14798 32.2785 4.90968 32.0417 4.70428 31.7776C4.5597 31.5914 4.36826 31.4443 4.26257 31.224C4.22667 31.1499 4.13294 31.0808 4.05617 31.0262C3.99933 30.9862 3.99236 30.9463 3.98438 30.8936C3.98139 30.8741 3.98139 30.8391 3.9774 30.8381C3.76901 30.8176 3.79992 30.5886 3.66431 30.496C3.55463 30.421 3.48883 30.2894 3.4988 30.1471C3.50179 30.1033 3.49381 30.0224 3.58155 30.0331C3.65833 30.0419 3.74009 29.9737 3.81388 30.077C3.89963 30.1968 4.0103 30.3031 4.12397 30.3995C4.24163 30.4989 4.28051 30.649 4.39418 30.7504C4.51682 30.8595 4.63348 30.9765 4.74117 31.0993C4.80797 31.1753 4.92164 31.2338 4.89672 31.3624C4.87677 31.4657 4.97947 31.5018 5.02534 31.5417C5.12605 31.6294 5.21977 31.7327 5.33045 31.8136C5.43814 31.8926 5.5199 31.9774 5.66248 32.0066C5.6914 32.0124 5.80606 32.0943 5.78413 32.1976C5.78113 32.2112 5.78911 32.2385 5.79709 32.2395C5.93768 32.2678 6.00648 32.3896 6.11017 32.4617C6.24279 32.5533 6.35147 32.6703 6.45218 32.7814C6.56385 32.9032 6.7184 33.0367 6.68948 33.2589Z" fill="#F7A728"/>
<path d="M30.497 28.2253C30.497 28.4349 30.489 28.6454 30.501 28.8539C30.5059 28.9358 30.4421 28.9933 30.4132 29.0128C30.2946 29.0927 30.3145 29.2028 30.3085 29.3091C30.3045 29.386 30.2876 29.4445 30.1919 29.4445C30.1729 29.4445 30.138 29.4543 30.138 29.4582C30.142 29.6102 30.0393 29.6394 29.9157 29.6541C29.8927 29.657 29.9027 29.7535 29.8469 29.7057C29.809 29.6726 29.808 29.5868 29.8459 29.5546C29.9256 29.4884 29.9177 29.4055 29.9217 29.3237C29.9346 29.0362 29.9276 28.7487 29.8967 28.4622C29.8818 28.3257 29.7681 28.2468 29.6824 28.1659C29.5986 28.087 29.5547 28.0129 29.5089 27.9086C29.4341 27.742 29.3982 27.5831 29.4121 27.4067C29.4281 27.206 29.8479 26.9828 29.9915 27.1202C30.1201 27.244 30.3285 27.3326 30.3205 27.5617C30.3175 27.6396 30.3983 27.6611 30.4322 27.7157C30.5319 27.8765 30.5189 28.0509 30.497 28.2253Z" fill="#F7A728"/>
<path d="M19.2657 30.6099C19.2258 30.6099 19.1859 30.6119 19.146 30.6099C19.0303 30.6021 18.9137 30.6304 18.819 30.5105C18.7362 30.4053 18.5677 30.4247 18.456 30.3292C18.3573 30.2454 18.3274 30.1353 18.4072 30.0271C18.5069 29.8907 18.6455 29.8615 18.791 29.804C18.9376 29.7465 19.0732 29.7338 19.2188 29.7318C19.4342 29.7289 19.7373 30.0184 19.7453 30.2269C19.7562 30.5232 19.6695 30.6128 19.3733 30.6119C19.3374 30.6119 19.3015 30.6119 19.2657 30.6119C19.2657 30.6109 19.2657 30.6099 19.2657 30.6099Z" fill="#F7A728"/>
<path d="M29.3103 30.8137C29.3393 30.9775 29.2216 31.1051 29.1917 31.2562C29.1787 31.3234 29.0521 31.2835 28.9763 31.2845C28.9125 31.2854 28.9305 31.2328 28.9265 31.1987C28.9045 31.033 28.9853 30.9044 29.088 30.7845C29.099 30.7718 29.101 30.7494 29.104 30.7309C29.1129 30.6695 29.095 30.5974 29.2077 30.6032C29.3263 30.6101 29.3104 30.6841 29.3113 30.7562C29.3104 30.7757 29.3103 30.7952 29.3103 30.8137Z" fill="#37B557"/>
<path d="M27.3211 26.5811C27.3301 26.7838 27.1596 26.8715 27.0649 27.0089C26.9712 27.1463 26.7987 27.1571 26.691 27.2662C26.671 27.2857 26.6232 27.2828 26.5883 27.2828C26.1416 27.2857 25.6949 27.2876 25.2482 27.2896C25.1126 27.2906 25.0597 27.2029 25.0577 27.0898C25.0508 26.8218 25.0557 26.5528 25.0557 26.2838C25.0547 26.2838 25.0548 26.2838 25.0548 26.2838C25.0548 26.011 25.0577 25.7381 25.0528 25.4652C25.0518 25.3843 25.0857 25.3502 25.1614 25.3502C25.66 25.3492 26.1575 25.3502 26.6561 25.3492C26.7388 25.3492 26.7568 25.4331 26.8206 25.4672C26.9991 25.5627 27.0898 25.7673 27.2822 25.857C27.3281 25.8784 27.3161 25.934 27.3161 25.973C27.3201 26.1757 27.3112 26.3784 27.3211 26.5811Z" fill="#37B557"/>
<path d="M27.0181 23.5493C26.9752 23.6672 26.8825 23.789 26.7738 23.8923C26.6531 24.0083 26.5175 23.9664 26.3969 24.0093C26.0349 24.1389 25.661 24.0268 25.2971 24.0872C25.1435 24.1135 25.0498 24.0151 25.0498 23.8641C25.0508 23.522 25.0478 23.1789 25.0528 22.8369C25.0548 22.7053 25.1276 22.6234 25.2692 22.6225C25.4726 22.6195 25.676 22.6215 25.8794 22.6215V22.6264C26.0668 22.6264 26.2543 22.6332 26.4407 22.6234C26.5744 22.6166 26.6501 22.6897 26.7259 22.7755C26.7399 22.7911 26.7628 22.8076 26.7817 22.8076C26.9532 22.8057 26.9852 22.9772 27.0131 23.0571C27.0669 23.2072 27.0729 23.4021 27.0181 23.5493Z" fill="#37B557"/>
</g>
<defs>
<clipPath id="clip0_506_2528">
<rect width="36.2143" height="39" fill="white"/>
</clipPath>
</defs>
</svg>
