<svg width="17" height="16" viewBox="0 0 17 16" fill="none" xmlns="http://www.w3.org/2000/svg">
<path d="M6.83333 3.5H2.66667C1.74619 3.5 1 4.24619 1 5.16667V12.6667C1 13.5871 1.74619 14.3333 2.66667 14.3333H14.3333C15.2538 14.3333 16 13.5871 16 12.6667V5.16667C16 4.24619 15.2538 3.5 14.3333 3.5H10.1667M6.83333 3.5V2.66667C6.83333 1.74619 7.57953 1 8.5 1C9.42047 1 10.1667 1.74619 10.1667 2.66667V3.5M6.83333 3.5C6.83333 4.42047 7.57953 5.16667 8.5 5.16667C9.42047 5.16667 10.1667 4.42047 10.1667 3.5M6 10.1667C6.92047 10.1667 7.66667 9.42047 7.66667 8.5C7.66667 7.57953 6.92047 6.83333 6 6.83333C5.07953 6.83333 4.33333 7.57953 4.33333 8.5C4.33333 9.42047 5.07953 10.1667 6 10.1667ZM6 10.1667C7.08852 10.1667 8.0145 10.8623 8.3577 11.8333M6 10.1667C4.91148 10.1667 3.98541 10.8623 3.64221 11.8333M11 7.66667H13.5M11 11H12.6667" stroke="#374151" stroke-width="1.5" stroke-linecap="round" stroke-linejoin="round"/>
</svg>
