<svg width="17" height="17" viewBox="0 0 17 17" fill="none" xmlns="http://www.w3.org/2000/svg">
<path d="M1 1H2.66667L3 2.66667M4.33333 9.33333H12.6667L16 2.66667H3M4.33333 9.33333L3 2.66667M4.33333 9.33333L2.42259 11.2441C1.89762 11.769 2.26942 12.6667 3.01184 12.6667H12.6667M12.6667 12.6667C11.7462 12.6667 11 13.4129 11 14.3333C11 15.2538 11.7462 16 12.6667 16C13.5871 16 14.3333 15.2538 14.3333 14.3333C14.3333 13.4129 13.5871 12.6667 12.6667 12.6667ZM6 14.3333C6 15.2538 5.25381 16 4.33333 16C3.41286 16 2.66667 15.2538 2.66667 14.3333C2.66667 13.4129 3.41286 12.6667 4.33333 12.6667C5.25381 12.6667 6 13.4129 6 14.3333Z" stroke="#374151" stroke-width="1.5" stroke-linecap="round" stroke-linejoin="round"/>
</svg>
