<svg width="25" height="24" viewBox="0 0 25 24" fill="none" xmlns="http://www.w3.org/2000/svg">
<path d="M17.5 9V7C17.5 5.89543 16.6046 5 15.5 5H5.5C4.39543 5 3.5 5.89543 3.5 7V13C3.5 14.1046 4.39543 15 5.5 15H7.5M9.5 19H19.5C20.6046 19 21.5 18.1046 21.5 17V11C21.5 9.89543 20.6046 9 19.5 9H9.5C8.39543 9 7.5 9.89543 7.5 11V17C7.5 18.1046 8.39543 19 9.5 19ZM16.5 14C16.5 15.1046 15.6046 16 14.5 16C13.3954 16 12.5 15.1046 12.5 14C12.5 12.8954 13.3954 12 14.5 12C15.6046 12 16.5 12.8954 16.5 14Z" stroke="black" stroke-width="2" stroke-linecap="round" stroke-linejoin="round"/>
</svg>
