<svg width="18" height="17" viewBox="0 0 18 17" fill="none" xmlns="http://www.w3.org/2000/svg">
<path d="M1.5 1H3.16667L3.5 2.66667M4.83333 9.33333H13.1667L16.5 2.66667H3.5M4.83333 9.33333L3.5 2.66667M4.83333 9.33333L2.92259 11.2441C2.39762 11.769 2.76942 12.6667 3.51184 12.6667H13.1667M13.1667 12.6667C12.2462 12.6667 11.5 13.4129 11.5 14.3333C11.5 15.2538 12.2462 16 13.1667 16C14.0871 16 14.8333 15.2538 14.8333 14.3333C14.8333 13.4129 14.0871 12.6667 13.1667 12.6667ZM6.5 14.3333C6.5 15.2538 5.75381 16 4.83333 16C3.91286 16 3.16667 15.2538 3.16667 14.3333C3.16667 13.4129 3.91286 12.6667 4.83333 12.6667C5.75381 12.6667 6.5 13.4129 6.5 14.3333Z" stroke="#374151" stroke-width="1.5" stroke-linecap="round" stroke-linejoin="round"/>
</svg>
