<svg width="15" height="15" viewBox="0 0 15 15" fill="none" xmlns="http://www.w3.org/2000/svg">
<path d="M0.833008 2.50004C0.833008 1.57957 1.5792 0.833374 2.49967 0.833374H4.16634C5.08682 0.833374 5.83301 1.57957 5.83301 2.50004V4.16671C5.83301 5.08718 5.08682 5.83337 4.16634 5.83337H2.49967C1.5792 5.83337 0.833008 5.08718 0.833008 4.16671V2.50004Z" stroke="#1D8AE8" stroke-width="1.5" stroke-linecap="round" stroke-linejoin="round"/>
<path d="M9.16634 2.50004C9.16634 1.57957 9.91253 0.833374 10.833 0.833374H12.4997C13.4201 0.833374 14.1663 1.57957 14.1663 2.50004V4.16671C14.1663 5.08718 13.4201 5.83337 12.4997 5.83337H10.833C9.91253 5.83337 9.16634 5.08718 9.16634 4.16671V2.50004Z" stroke="#1D8AE8" stroke-width="1.5" stroke-linecap="round" stroke-linejoin="round"/>
<path d="M0.833008 10.8334C0.833008 9.9129 1.5792 9.16671 2.49967 9.16671H4.16634C5.08682 9.16671 5.83301 9.9129 5.83301 10.8334V12.5C5.83301 13.4205 5.08682 14.1667 4.16634 14.1667H2.49967C1.5792 14.1667 0.833008 13.4205 0.833008 12.5V10.8334Z" stroke="#1D8AE8" stroke-width="1.5" stroke-linecap="round" stroke-linejoin="round"/>
<path d="M9.16634 10.8334C9.16634 9.9129 9.91253 9.16671 10.833 9.16671H12.4997C13.4201 9.16671 14.1663 9.9129 14.1663 10.8334V12.5C14.1663 13.4205 13.4201 14.1667 12.4997 14.1667H10.833C9.91253 14.1667 9.16634 13.4205 9.16634 12.5V10.8334Z" stroke="#1D8AE8" stroke-width="1.5" stroke-linecap="round" stroke-linejoin="round"/>
</svg>
