<svg width="28" height="28" viewBox="0 0 28 28" fill="none" xmlns="http://www.w3.org/2000/svg">
<path d="M4.82817 21.7384C7.53701 20.2073 10.6665 19.3335 14.0001 19.3335C17.3337 19.3335 20.4632 20.2073 23.1721 21.7384M18.0001 11.3335C18.0001 13.5426 16.2093 15.3335 14.0001 15.3335C11.791 15.3335 10.0001 13.5426 10.0001 11.3335C10.0001 9.12432 11.791 7.33346 14.0001 7.33346C16.2093 7.33346 18.0001 9.12432 18.0001 11.3335ZM26.0001 14.0001C26.0001 20.6275 20.6275 26.0001 14.0001 26.0001C7.3727 26.0001 2.00012 20.6275 2.00012 14.0001C2.00012 7.3727 7.3727 2.00012 14.0001 2.00012C20.6275 2.00012 26.0001 7.3727 26.0001 14.0001Z" stroke="#374151" stroke-width="2.66521" stroke-linecap="round" stroke-linejoin="round"/>
</svg>
